<mxfile host="app.diagrams.net" modified="2023-11-19T11:24:27.332Z" agent="Mozilla/5.0 (Windows NT 10.0; Win64; x64) AppleWebKit/537.36 (KHTML, like Gecko) Chrome/119.0.0.0 Safari/537.36" etag="gExeYhNNBrqWEJpkocXz" version="22.1.3" type="device">
  <diagram name="Page-1" id="gWWGim1B_IA1LwJvJAzq">
    <mxGraphModel dx="1838" dy="3376" grid="1" gridSize="10" guides="1" tooltips="1" connect="1" arrows="1" fold="1" page="1" pageScale="2" pageWidth="1920" pageHeight="1200" math="0" shadow="0">
      <root>
        <mxCell id="0" />
        <mxCell id="1" parent="0" />
        <mxCell id="PkiGXHJMQHUCtbzhcNAy-1" value="User" style="swimlane;fontStyle=2;align=center;verticalAlign=top;childLayout=stackLayout;horizontal=1;startSize=26;horizontalStack=0;resizeParent=1;resizeLast=0;collapsible=1;marginBottom=0;rounded=0;shadow=0;strokeWidth=1;" parent="1" vertex="1">
          <mxGeometry x="590" y="470" width="160" height="364" as="geometry">
            <mxRectangle x="230" y="140" width="160" height="26" as="alternateBounds" />
          </mxGeometry>
        </mxCell>
        <mxCell id="PkiGXHJMQHUCtbzhcNAy-2" value="id: Long" style="text;align=left;verticalAlign=top;spacingLeft=4;spacingRight=4;overflow=hidden;rotatable=0;points=[[0,0.5],[1,0.5]];portConstraint=eastwest;" parent="PkiGXHJMQHUCtbzhcNAy-1" vertex="1">
          <mxGeometry y="26" width="160" height="26" as="geometry" />
        </mxCell>
        <mxCell id="PkiGXHJMQHUCtbzhcNAy-3" value="email: String" style="text;align=left;verticalAlign=top;spacingLeft=4;spacingRight=4;overflow=hidden;rotatable=0;points=[[0,0.5],[1,0.5]];portConstraint=eastwest;rounded=0;shadow=0;html=0;" parent="PkiGXHJMQHUCtbzhcNAy-1" vertex="1">
          <mxGeometry y="52" width="160" height="26" as="geometry" />
        </mxCell>
        <mxCell id="PkiGXHJMQHUCtbzhcNAy-4" value="password: String" style="text;align=left;verticalAlign=top;spacingLeft=4;spacingRight=4;overflow=hidden;rotatable=0;points=[[0,0.5],[1,0.5]];portConstraint=eastwest;rounded=0;shadow=0;html=0;" parent="PkiGXHJMQHUCtbzhcNAy-1" vertex="1">
          <mxGeometry y="78" width="160" height="26" as="geometry" />
        </mxCell>
        <mxCell id="PkiGXHJMQHUCtbzhcNAy-5" value="firstName: String" style="text;align=left;verticalAlign=top;spacingLeft=4;spacingRight=4;overflow=hidden;rotatable=0;points=[[0,0.5],[1,0.5]];portConstraint=eastwest;rounded=0;shadow=0;html=0;" parent="PkiGXHJMQHUCtbzhcNAy-1" vertex="1">
          <mxGeometry y="104" width="160" height="26" as="geometry" />
        </mxCell>
        <mxCell id="PkiGXHJMQHUCtbzhcNAy-6" value="lastName: String" style="text;align=left;verticalAlign=top;spacingLeft=4;spacingRight=4;overflow=hidden;rotatable=0;points=[[0,0.5],[1,0.5]];portConstraint=eastwest;rounded=0;shadow=0;html=0;" parent="PkiGXHJMQHUCtbzhcNAy-1" vertex="1">
          <mxGeometry y="130" width="160" height="26" as="geometry" />
        </mxCell>
        <mxCell id="PkiGXHJMQHUCtbzhcNAy-7" value="city: String" style="text;align=left;verticalAlign=top;spacingLeft=4;spacingRight=4;overflow=hidden;rotatable=0;points=[[0,0.5],[1,0.5]];portConstraint=eastwest;rounded=0;shadow=0;html=0;" parent="PkiGXHJMQHUCtbzhcNAy-1" vertex="1">
          <mxGeometry y="156" width="160" height="26" as="geometry" />
        </mxCell>
        <mxCell id="PkiGXHJMQHUCtbzhcNAy-8" value="country: String" style="text;align=left;verticalAlign=top;spacingLeft=4;spacingRight=4;overflow=hidden;rotatable=0;points=[[0,0.5],[1,0.5]];portConstraint=eastwest;rounded=0;shadow=0;html=0;" parent="PkiGXHJMQHUCtbzhcNAy-1" vertex="1">
          <mxGeometry y="182" width="160" height="26" as="geometry" />
        </mxCell>
        <mxCell id="PkiGXHJMQHUCtbzhcNAy-9" value="phoneNumber: String" style="text;align=left;verticalAlign=top;spacingLeft=4;spacingRight=4;overflow=hidden;rotatable=0;points=[[0,0.5],[1,0.5]];portConstraint=eastwest;rounded=0;shadow=0;html=0;" parent="PkiGXHJMQHUCtbzhcNAy-1" vertex="1">
          <mxGeometry y="208" width="160" height="26" as="geometry" />
        </mxCell>
        <mxCell id="PkiGXHJMQHUCtbzhcNAy-10" value="jobTitle: String" style="text;align=left;verticalAlign=top;spacingLeft=4;spacingRight=4;overflow=hidden;rotatable=0;points=[[0,0.5],[1,0.5]];portConstraint=eastwest;rounded=0;shadow=0;html=0;" parent="PkiGXHJMQHUCtbzhcNAy-1" vertex="1">
          <mxGeometry y="234" width="160" height="26" as="geometry" />
        </mxCell>
        <mxCell id="PkiGXHJMQHUCtbzhcNAy-11" value="hospitalInfo: String" style="text;align=left;verticalAlign=top;spacingLeft=4;spacingRight=4;overflow=hidden;rotatable=0;points=[[0,0.5],[1,0.5]];portConstraint=eastwest;rounded=0;shadow=0;html=0;" parent="PkiGXHJMQHUCtbzhcNAy-1" vertex="1">
          <mxGeometry y="260" width="160" height="26" as="geometry" />
        </mxCell>
        <mxCell id="PkiGXHJMQHUCtbzhcNAy-12" value="points: int" style="text;align=left;verticalAlign=top;spacingLeft=4;spacingRight=4;overflow=hidden;rotatable=0;points=[[0,0.5],[1,0.5]];portConstraint=eastwest;rounded=0;shadow=0;html=0;" parent="PkiGXHJMQHUCtbzhcNAy-1" vertex="1">
          <mxGeometry y="286" width="160" height="26" as="geometry" />
        </mxCell>
        <mxCell id="PkiGXHJMQHUCtbzhcNAy-13" value="penaltyPoints: int" style="text;align=left;verticalAlign=top;spacingLeft=4;spacingRight=4;overflow=hidden;rotatable=0;points=[[0,0.5],[1,0.5]];portConstraint=eastwest;rounded=0;shadow=0;html=0;" parent="PkiGXHJMQHUCtbzhcNAy-1" vertex="1">
          <mxGeometry y="312" width="160" height="26" as="geometry" />
        </mxCell>
        <mxCell id="vfgOjcTiKyNMUZwXhWeF-1" value="emailConfirmed: boolean" style="text;align=left;verticalAlign=top;spacingLeft=4;spacingRight=4;overflow=hidden;rotatable=0;points=[[0,0.5],[1,0.5]];portConstraint=eastwest;rounded=0;shadow=0;html=0;" vertex="1" parent="PkiGXHJMQHUCtbzhcNAy-1">
          <mxGeometry y="338" width="160" height="26" as="geometry" />
        </mxCell>
        <mxCell id="PkiGXHJMQHUCtbzhcNAy-15" value="EmailToken" style="swimlane;fontStyle=0;align=center;verticalAlign=top;childLayout=stackLayout;horizontal=1;startSize=26;horizontalStack=0;resizeParent=1;resizeLast=0;collapsible=1;marginBottom=0;rounded=0;shadow=0;strokeWidth=1;" parent="1" vertex="1">
          <mxGeometry x="290" y="470" width="190" height="104" as="geometry">
            <mxRectangle x="340" y="380" width="170" height="26" as="alternateBounds" />
          </mxGeometry>
        </mxCell>
        <mxCell id="PkiGXHJMQHUCtbzhcNAy-16" value="id: Long" style="text;align=left;verticalAlign=top;spacingLeft=4;spacingRight=4;overflow=hidden;rotatable=0;points=[[0,0.5],[1,0.5]];portConstraint=eastwest;" parent="PkiGXHJMQHUCtbzhcNAy-15" vertex="1">
          <mxGeometry y="26" width="190" height="26" as="geometry" />
        </mxCell>
        <mxCell id="PkiGXHJMQHUCtbzhcNAy-17" value="token: String" style="text;align=left;verticalAlign=top;spacingLeft=4;spacingRight=4;overflow=hidden;rotatable=0;points=[[0,0.5],[1,0.5]];portConstraint=eastwest;" parent="PkiGXHJMQHUCtbzhcNAy-15" vertex="1">
          <mxGeometry y="52" width="190" height="26" as="geometry" />
        </mxCell>
        <mxCell id="PkiGXHJMQHUCtbzhcNAy-18" value="creationDateTime LocalDateTime" style="text;align=left;verticalAlign=top;spacingLeft=4;spacingRight=4;overflow=hidden;rotatable=0;points=[[0,0.5],[1,0.5]];portConstraint=eastwest;" parent="PkiGXHJMQHUCtbzhcNAy-15" vertex="1">
          <mxGeometry y="78" width="190" height="26" as="geometry" />
        </mxCell>
        <mxCell id="PkiGXHJMQHUCtbzhcNAy-21" style="edgeStyle=orthogonalEdgeStyle;rounded=0;orthogonalLoop=1;jettySize=auto;html=1;entryX=0;entryY=0.5;entryDx=0;entryDy=0;exitX=1;exitY=0.5;exitDx=0;exitDy=0;" parent="1" source="PkiGXHJMQHUCtbzhcNAy-16" target="PkiGXHJMQHUCtbzhcNAy-2" edge="1">
          <mxGeometry relative="1" as="geometry">
            <mxPoint x="610.01" y="509" as="targetPoint" />
            <mxPoint x="500.01" y="520" as="sourcePoint" />
            <Array as="points" />
          </mxGeometry>
        </mxCell>
        <mxCell id="PkiGXHJMQHUCtbzhcNAy-22" value="(1,1)" style="edgeLabel;html=1;align=center;verticalAlign=middle;resizable=0;points=[];" parent="PkiGXHJMQHUCtbzhcNAy-21" vertex="1" connectable="0">
          <mxGeometry x="-0.6993" y="2" relative="1" as="geometry">
            <mxPoint y="-11" as="offset" />
          </mxGeometry>
        </mxCell>
        <mxCell id="PkiGXHJMQHUCtbzhcNAy-24" value="(1,1)" style="edgeLabel;html=1;align=center;verticalAlign=middle;resizable=0;points=[];" parent="PkiGXHJMQHUCtbzhcNAy-21" vertex="1" connectable="0">
          <mxGeometry x="0.3028" y="2" relative="1" as="geometry">
            <mxPoint x="23" y="-11" as="offset" />
          </mxGeometry>
        </mxCell>
        <mxCell id="PkiGXHJMQHUCtbzhcNAy-25" value="LoyaltyProgram" style="swimlane;fontStyle=0;align=center;verticalAlign=top;childLayout=stackLayout;horizontal=1;startSize=26;horizontalStack=0;resizeParent=1;resizeLast=0;collapsible=1;marginBottom=0;rounded=0;shadow=0;strokeWidth=1;" parent="1" vertex="1">
          <mxGeometry x="310" y="620" width="210" height="156" as="geometry">
            <mxRectangle x="340" y="380" width="170" height="26" as="alternateBounds" />
          </mxGeometry>
        </mxCell>
        <mxCell id="PkiGXHJMQHUCtbzhcNAy-26" value="id: Long" style="text;align=left;verticalAlign=top;spacingLeft=4;spacingRight=4;overflow=hidden;rotatable=0;points=[[0,0.5],[1,0.5]];portConstraint=eastwest;" parent="PkiGXHJMQHUCtbzhcNAy-25" vertex="1">
          <mxGeometry y="26" width="210" height="26" as="geometry" />
        </mxCell>
        <mxCell id="PkiGXHJMQHUCtbzhcNAy-27" value="loyaltyType: String" style="text;align=left;verticalAlign=top;spacingLeft=4;spacingRight=4;overflow=hidden;rotatable=0;points=[[0,0.5],[1,0.5]];portConstraint=eastwest;" parent="PkiGXHJMQHUCtbzhcNAy-25" vertex="1">
          <mxGeometry y="52" width="210" height="26" as="geometry" />
        </mxCell>
        <mxCell id="PkiGXHJMQHUCtbzhcNAy-28" value="minPoints: int" style="text;align=left;verticalAlign=top;spacingLeft=4;spacingRight=4;overflow=hidden;rotatable=0;points=[[0,0.5],[1,0.5]];portConstraint=eastwest;" parent="PkiGXHJMQHUCtbzhcNAy-25" vertex="1">
          <mxGeometry y="78" width="210" height="26" as="geometry" />
        </mxCell>
        <mxCell id="PkiGXHJMQHUCtbzhcNAy-29" value="maxPenaltyPoints: int" style="text;align=left;verticalAlign=top;spacingLeft=4;spacingRight=4;overflow=hidden;rotatable=0;points=[[0,0.5],[1,0.5]];portConstraint=eastwest;" parent="PkiGXHJMQHUCtbzhcNAy-25" vertex="1">
          <mxGeometry y="104" width="210" height="26" as="geometry" />
        </mxCell>
        <mxCell id="PkiGXHJMQHUCtbzhcNAy-30" value="discount: double" style="text;align=left;verticalAlign=top;spacingLeft=4;spacingRight=4;overflow=hidden;rotatable=0;points=[[0,0.5],[1,0.5]];portConstraint=eastwest;" parent="PkiGXHJMQHUCtbzhcNAy-25" vertex="1">
          <mxGeometry y="130" width="210" height="26" as="geometry" />
        </mxCell>
        <mxCell id="PkiGXHJMQHUCtbzhcNAy-41" value="CompanyAdmin" style="swimlane;fontStyle=2;align=center;verticalAlign=top;childLayout=stackLayout;horizontal=1;startSize=26;horizontalStack=0;resizeParent=1;resizeLast=0;collapsible=1;marginBottom=0;rounded=0;shadow=0;strokeWidth=1;" parent="1" vertex="1">
          <mxGeometry x="1000" y="510" width="160" height="240" as="geometry">
            <mxRectangle x="230" y="140" width="160" height="26" as="alternateBounds" />
          </mxGeometry>
        </mxCell>
        <mxCell id="PkiGXHJMQHUCtbzhcNAy-42" value="id: Long" style="text;align=left;verticalAlign=top;spacingLeft=4;spacingRight=4;overflow=hidden;rotatable=0;points=[[0,0.5],[1,0.5]];portConstraint=eastwest;" parent="PkiGXHJMQHUCtbzhcNAy-41" vertex="1">
          <mxGeometry y="26" width="160" height="26" as="geometry" />
        </mxCell>
        <mxCell id="PkiGXHJMQHUCtbzhcNAy-43" value="email: String" style="text;align=left;verticalAlign=top;spacingLeft=4;spacingRight=4;overflow=hidden;rotatable=0;points=[[0,0.5],[1,0.5]];portConstraint=eastwest;rounded=0;shadow=0;html=0;" parent="PkiGXHJMQHUCtbzhcNAy-41" vertex="1">
          <mxGeometry y="52" width="160" height="26" as="geometry" />
        </mxCell>
        <mxCell id="PkiGXHJMQHUCtbzhcNAy-44" value="password: String" style="text;align=left;verticalAlign=top;spacingLeft=4;spacingRight=4;overflow=hidden;rotatable=0;points=[[0,0.5],[1,0.5]];portConstraint=eastwest;rounded=0;shadow=0;html=0;" parent="PkiGXHJMQHUCtbzhcNAy-41" vertex="1">
          <mxGeometry y="78" width="160" height="26" as="geometry" />
        </mxCell>
        <mxCell id="PkiGXHJMQHUCtbzhcNAy-45" value="firstName: String" style="text;align=left;verticalAlign=top;spacingLeft=4;spacingRight=4;overflow=hidden;rotatable=0;points=[[0,0.5],[1,0.5]];portConstraint=eastwest;rounded=0;shadow=0;html=0;" parent="PkiGXHJMQHUCtbzhcNAy-41" vertex="1">
          <mxGeometry y="104" width="160" height="26" as="geometry" />
        </mxCell>
        <mxCell id="PkiGXHJMQHUCtbzhcNAy-46" value="lastName: String" style="text;align=left;verticalAlign=top;spacingLeft=4;spacingRight=4;overflow=hidden;rotatable=0;points=[[0,0.5],[1,0.5]];portConstraint=eastwest;rounded=0;shadow=0;html=0;" parent="PkiGXHJMQHUCtbzhcNAy-41" vertex="1">
          <mxGeometry y="130" width="160" height="26" as="geometry" />
        </mxCell>
        <mxCell id="PkiGXHJMQHUCtbzhcNAy-47" value="city: String" style="text;align=left;verticalAlign=top;spacingLeft=4;spacingRight=4;overflow=hidden;rotatable=0;points=[[0,0.5],[1,0.5]];portConstraint=eastwest;rounded=0;shadow=0;html=0;" parent="PkiGXHJMQHUCtbzhcNAy-41" vertex="1">
          <mxGeometry y="156" width="160" height="26" as="geometry" />
        </mxCell>
        <mxCell id="PkiGXHJMQHUCtbzhcNAy-48" value="country: String" style="text;align=left;verticalAlign=top;spacingLeft=4;spacingRight=4;overflow=hidden;rotatable=0;points=[[0,0.5],[1,0.5]];portConstraint=eastwest;rounded=0;shadow=0;html=0;" parent="PkiGXHJMQHUCtbzhcNAy-41" vertex="1">
          <mxGeometry y="182" width="160" height="26" as="geometry" />
        </mxCell>
        <mxCell id="PkiGXHJMQHUCtbzhcNAy-49" value="phoneNumber: String" style="text;align=left;verticalAlign=top;spacingLeft=4;spacingRight=4;overflow=hidden;rotatable=0;points=[[0,0.5],[1,0.5]];portConstraint=eastwest;rounded=0;shadow=0;html=0;" parent="PkiGXHJMQHUCtbzhcNAy-41" vertex="1">
          <mxGeometry y="208" width="160" height="26" as="geometry" />
        </mxCell>
        <mxCell id="PkiGXHJMQHUCtbzhcNAy-51" value="Company" style="swimlane;fontStyle=0;align=center;verticalAlign=top;childLayout=stackLayout;horizontal=1;startSize=26;horizontalStack=0;resizeParent=1;resizeLast=0;collapsible=1;marginBottom=0;rounded=0;shadow=0;strokeWidth=1;" parent="1" vertex="1">
          <mxGeometry x="1270" y="515" width="220" height="160" as="geometry">
            <mxRectangle x="130" y="380" width="160" height="26" as="alternateBounds" />
          </mxGeometry>
        </mxCell>
        <mxCell id="PkiGXHJMQHUCtbzhcNAy-52" value="id: Long" style="text;align=left;verticalAlign=top;spacingLeft=4;spacingRight=4;overflow=hidden;rotatable=0;points=[[0,0.5],[1,0.5]];portConstraint=eastwest;" parent="PkiGXHJMQHUCtbzhcNAy-51" vertex="1">
          <mxGeometry y="26" width="220" height="26" as="geometry" />
        </mxCell>
        <mxCell id="PkiGXHJMQHUCtbzhcNAy-53" value="name: String" style="text;align=left;verticalAlign=top;spacingLeft=4;spacingRight=4;overflow=hidden;rotatable=0;points=[[0,0.5],[1,0.5]];portConstraint=eastwest;" parent="PkiGXHJMQHUCtbzhcNAy-51" vertex="1">
          <mxGeometry y="52" width="220" height="26" as="geometry" />
        </mxCell>
        <mxCell id="vfgOjcTiKyNMUZwXhWeF-2" value="workingHours: String" style="text;align=left;verticalAlign=top;spacingLeft=4;spacingRight=4;overflow=hidden;rotatable=0;points=[[0,0.5],[1,0.5]];portConstraint=eastwest;" vertex="1" parent="PkiGXHJMQHUCtbzhcNAy-51">
          <mxGeometry y="78" width="220" height="26" as="geometry" />
        </mxCell>
        <mxCell id="PkiGXHJMQHUCtbzhcNAy-55" value="description: String" style="text;align=left;verticalAlign=top;spacingLeft=4;spacingRight=4;overflow=hidden;rotatable=0;points=[[0,0.5],[1,0.5]];portConstraint=eastwest;" parent="PkiGXHJMQHUCtbzhcNAy-51" vertex="1">
          <mxGeometry y="104" width="220" height="26" as="geometry" />
        </mxCell>
        <mxCell id="PkiGXHJMQHUCtbzhcNAy-56" value="workingHours: String (CHANGE THIS)" style="text;align=left;verticalAlign=top;spacingLeft=4;spacingRight=4;overflow=hidden;rotatable=0;points=[[0,0.5],[1,0.5]];portConstraint=eastwest;" parent="PkiGXHJMQHUCtbzhcNAy-51" vertex="1">
          <mxGeometry y="130" width="220" height="30" as="geometry" />
        </mxCell>
        <mxCell id="PkiGXHJMQHUCtbzhcNAy-59" style="edgeStyle=orthogonalEdgeStyle;rounded=0;orthogonalLoop=1;jettySize=auto;html=1;exitX=1;exitY=0.5;exitDx=0;exitDy=0;" parent="PkiGXHJMQHUCtbzhcNAy-51" edge="1">
          <mxGeometry relative="1" as="geometry">
            <mxPoint x="220" y="192" as="sourcePoint" />
            <mxPoint x="220" y="192" as="targetPoint" />
          </mxGeometry>
        </mxCell>
        <mxCell id="PkiGXHJMQHUCtbzhcNAy-61" value="-PODSETNIK-&lt;br&gt;koristimo sistem kao na SIMS-u, npr ovde 1 LoyaltyProgram&lt;br&gt;&amp;nbsp;moze biti vezan za vise korisnika, dok za jednog korisnika&lt;br&gt;&amp;nbsp;vazi samo jedan LoyaltyProgram (strelica od jedne klase ka drugoj &lt;br&gt;znaci da prva klasa&amp;nbsp;sadrzi objekat druge u sebi, obostrana strelica&lt;br&gt;&amp;nbsp;se odnosi na medjusobno sadrzavanje - bidirekcionu vezu)" style="ellipse;shape=cloud;whiteSpace=wrap;html=1;fillColor=#d5e8d4;strokeColor=#82b366;" parent="1" vertex="1">
          <mxGeometry x="20" y="30" width="580" height="210" as="geometry" />
        </mxCell>
        <mxCell id="PkiGXHJMQHUCtbzhcNAy-64" value="Location" style="swimlane;fontStyle=0;align=center;verticalAlign=top;childLayout=stackLayout;horizontal=1;startSize=26;horizontalStack=0;resizeParent=1;resizeLast=0;collapsible=1;marginBottom=0;rounded=0;shadow=0;strokeWidth=1;" parent="1" vertex="1">
          <mxGeometry x="1660" y="620" width="160" height="208" as="geometry">
            <mxRectangle x="550" y="140" width="160" height="26" as="alternateBounds" />
          </mxGeometry>
        </mxCell>
        <mxCell id="PkiGXHJMQHUCtbzhcNAy-65" value="id: Long" style="text;align=left;verticalAlign=top;spacingLeft=4;spacingRight=4;overflow=hidden;rotatable=0;points=[[0,0.5],[1,0.5]];portConstraint=eastwest;" parent="PkiGXHJMQHUCtbzhcNAy-64" vertex="1">
          <mxGeometry y="26" width="160" height="26" as="geometry" />
        </mxCell>
        <mxCell id="PkiGXHJMQHUCtbzhcNAy-66" value="street: String" style="text;align=left;verticalAlign=top;spacingLeft=4;spacingRight=4;overflow=hidden;rotatable=0;points=[[0,0.5],[1,0.5]];portConstraint=eastwest;" parent="PkiGXHJMQHUCtbzhcNAy-64" vertex="1">
          <mxGeometry y="52" width="160" height="26" as="geometry" />
        </mxCell>
        <mxCell id="PkiGXHJMQHUCtbzhcNAy-67" value="city: String" style="text;align=left;verticalAlign=top;spacingLeft=4;spacingRight=4;overflow=hidden;rotatable=0;points=[[0,0.5],[1,0.5]];portConstraint=eastwest;rounded=0;shadow=0;html=0;" parent="PkiGXHJMQHUCtbzhcNAy-64" vertex="1">
          <mxGeometry y="78" width="160" height="26" as="geometry" />
        </mxCell>
        <mxCell id="PkiGXHJMQHUCtbzhcNAy-68" value="postalCode: String" style="text;align=left;verticalAlign=top;spacingLeft=4;spacingRight=4;overflow=hidden;rotatable=0;points=[[0,0.5],[1,0.5]];portConstraint=eastwest;rounded=0;shadow=0;html=0;" parent="PkiGXHJMQHUCtbzhcNAy-64" vertex="1">
          <mxGeometry y="104" width="160" height="26" as="geometry" />
        </mxCell>
        <mxCell id="PkiGXHJMQHUCtbzhcNAy-69" value="country: String" style="text;align=left;verticalAlign=top;spacingLeft=4;spacingRight=4;overflow=hidden;rotatable=0;points=[[0,0.5],[1,0.5]];portConstraint=eastwest;rounded=0;shadow=0;html=0;" parent="PkiGXHJMQHUCtbzhcNAy-64" vertex="1">
          <mxGeometry y="130" width="160" height="26" as="geometry" />
        </mxCell>
        <mxCell id="PkiGXHJMQHUCtbzhcNAy-70" value="longitude: double" style="text;align=left;verticalAlign=top;spacingLeft=4;spacingRight=4;overflow=hidden;rotatable=0;points=[[0,0.5],[1,0.5]];portConstraint=eastwest;rounded=0;shadow=0;html=0;" parent="PkiGXHJMQHUCtbzhcNAy-64" vertex="1">
          <mxGeometry y="156" width="160" height="26" as="geometry" />
        </mxCell>
        <mxCell id="PkiGXHJMQHUCtbzhcNAy-71" value="latitude: double" style="text;align=left;verticalAlign=top;spacingLeft=4;spacingRight=4;overflow=hidden;rotatable=0;points=[[0,0.5],[1,0.5]];portConstraint=eastwest;rounded=0;shadow=0;html=0;" parent="PkiGXHJMQHUCtbzhcNAy-64" vertex="1">
          <mxGeometry y="182" width="160" height="26" as="geometry" />
        </mxCell>
        <mxCell id="PkiGXHJMQHUCtbzhcNAy-76" value="" style="endArrow=classic;html=1;rounded=0;exitX=0.994;exitY=0.686;exitDx=0;exitDy=0;entryX=0;entryY=0.5;entryDx=0;entryDy=0;exitPerimeter=0;" parent="1" source="PkiGXHJMQHUCtbzhcNAy-45" target="PkiGXHJMQHUCtbzhcNAy-55" edge="1">
          <mxGeometry width="50" height="50" relative="1" as="geometry">
            <mxPoint x="930" y="650" as="sourcePoint" />
            <mxPoint x="1260" y="627" as="targetPoint" />
          </mxGeometry>
        </mxCell>
        <mxCell id="PkiGXHJMQHUCtbzhcNAy-77" value="(0,N)" style="edgeLabel;html=1;align=center;verticalAlign=middle;resizable=0;points=[];" parent="PkiGXHJMQHUCtbzhcNAy-76" vertex="1" connectable="0">
          <mxGeometry x="-0.67" y="-2" relative="1" as="geometry">
            <mxPoint y="-11" as="offset" />
          </mxGeometry>
        </mxCell>
        <mxCell id="PkiGXHJMQHUCtbzhcNAy-79" value="(1,1)" style="edgeLabel;html=1;align=center;verticalAlign=middle;resizable=0;points=[];" parent="PkiGXHJMQHUCtbzhcNAy-76" vertex="1" connectable="0">
          <mxGeometry x="0.5138" y="1" relative="1" as="geometry">
            <mxPoint x="7" y="-8" as="offset" />
          </mxGeometry>
        </mxCell>
        <mxCell id="PkiGXHJMQHUCtbzhcNAy-80" value="" style="endArrow=classic;html=1;rounded=0;entryX=0;entryY=0.5;entryDx=0;entryDy=0;exitX=1;exitY=0.5;exitDx=0;exitDy=0;" parent="1" source="PkiGXHJMQHUCtbzhcNAy-56" target="PkiGXHJMQHUCtbzhcNAy-67" edge="1">
          <mxGeometry width="50" height="50" relative="1" as="geometry">
            <mxPoint x="1492" y="665" as="sourcePoint" />
            <mxPoint x="1279" y="637" as="targetPoint" />
            <Array as="points">
              <mxPoint x="1640" y="660" />
              <mxPoint x="1640" y="711" />
            </Array>
          </mxGeometry>
        </mxCell>
        <mxCell id="PkiGXHJMQHUCtbzhcNAy-81" value="(1,1)" style="edgeLabel;html=1;align=center;verticalAlign=middle;resizable=0;points=[];" parent="PkiGXHJMQHUCtbzhcNAy-80" vertex="1" connectable="0">
          <mxGeometry x="-0.67" y="-2" relative="1" as="geometry">
            <mxPoint y="-11" as="offset" />
          </mxGeometry>
        </mxCell>
        <mxCell id="PkiGXHJMQHUCtbzhcNAy-82" value="(1,1)" style="edgeLabel;html=1;align=center;verticalAlign=middle;resizable=0;points=[];" parent="PkiGXHJMQHUCtbzhcNAy-80" vertex="1" connectable="0">
          <mxGeometry x="0.5138" y="1" relative="1" as="geometry">
            <mxPoint x="-21" y="23" as="offset" />
          </mxGeometry>
        </mxCell>
        <mxCell id="PkiGXHJMQHUCtbzhcNAy-83" value="SystemAdmin" style="swimlane;fontStyle=2;align=center;verticalAlign=top;childLayout=stackLayout;horizontal=1;startSize=26;horizontalStack=0;resizeParent=1;resizeLast=0;collapsible=1;marginBottom=0;rounded=0;shadow=0;strokeWidth=1;" parent="1" vertex="1">
          <mxGeometry x="1620" y="180" width="160" height="260" as="geometry">
            <mxRectangle x="230" y="140" width="160" height="26" as="alternateBounds" />
          </mxGeometry>
        </mxCell>
        <mxCell id="PkiGXHJMQHUCtbzhcNAy-84" value="id: Long" style="text;align=left;verticalAlign=top;spacingLeft=4;spacingRight=4;overflow=hidden;rotatable=0;points=[[0,0.5],[1,0.5]];portConstraint=eastwest;" parent="PkiGXHJMQHUCtbzhcNAy-83" vertex="1">
          <mxGeometry y="26" width="160" height="26" as="geometry" />
        </mxCell>
        <mxCell id="PkiGXHJMQHUCtbzhcNAy-85" value="email: String" style="text;align=left;verticalAlign=top;spacingLeft=4;spacingRight=4;overflow=hidden;rotatable=0;points=[[0,0.5],[1,0.5]];portConstraint=eastwest;rounded=0;shadow=0;html=0;" parent="PkiGXHJMQHUCtbzhcNAy-83" vertex="1">
          <mxGeometry y="52" width="160" height="26" as="geometry" />
        </mxCell>
        <mxCell id="PkiGXHJMQHUCtbzhcNAy-86" value="password: String" style="text;align=left;verticalAlign=top;spacingLeft=4;spacingRight=4;overflow=hidden;rotatable=0;points=[[0,0.5],[1,0.5]];portConstraint=eastwest;rounded=0;shadow=0;html=0;" parent="PkiGXHJMQHUCtbzhcNAy-83" vertex="1">
          <mxGeometry y="78" width="160" height="26" as="geometry" />
        </mxCell>
        <mxCell id="PkiGXHJMQHUCtbzhcNAy-87" value="firstName: String" style="text;align=left;verticalAlign=top;spacingLeft=4;spacingRight=4;overflow=hidden;rotatable=0;points=[[0,0.5],[1,0.5]];portConstraint=eastwest;rounded=0;shadow=0;html=0;" parent="PkiGXHJMQHUCtbzhcNAy-83" vertex="1">
          <mxGeometry y="104" width="160" height="26" as="geometry" />
        </mxCell>
        <mxCell id="PkiGXHJMQHUCtbzhcNAy-88" value="lastName: String" style="text;align=left;verticalAlign=top;spacingLeft=4;spacingRight=4;overflow=hidden;rotatable=0;points=[[0,0.5],[1,0.5]];portConstraint=eastwest;rounded=0;shadow=0;html=0;" parent="PkiGXHJMQHUCtbzhcNAy-83" vertex="1">
          <mxGeometry y="130" width="160" height="26" as="geometry" />
        </mxCell>
        <mxCell id="PkiGXHJMQHUCtbzhcNAy-89" value="city: String" style="text;align=left;verticalAlign=top;spacingLeft=4;spacingRight=4;overflow=hidden;rotatable=0;points=[[0,0.5],[1,0.5]];portConstraint=eastwest;rounded=0;shadow=0;html=0;" parent="PkiGXHJMQHUCtbzhcNAy-83" vertex="1">
          <mxGeometry y="156" width="160" height="26" as="geometry" />
        </mxCell>
        <mxCell id="PkiGXHJMQHUCtbzhcNAy-90" value="country: String" style="text;align=left;verticalAlign=top;spacingLeft=4;spacingRight=4;overflow=hidden;rotatable=0;points=[[0,0.5],[1,0.5]];portConstraint=eastwest;rounded=0;shadow=0;html=0;" parent="PkiGXHJMQHUCtbzhcNAy-83" vertex="1">
          <mxGeometry y="182" width="160" height="26" as="geometry" />
        </mxCell>
        <mxCell id="PkiGXHJMQHUCtbzhcNAy-91" value="phoneNumber: String" style="text;align=left;verticalAlign=top;spacingLeft=4;spacingRight=4;overflow=hidden;rotatable=0;points=[[0,0.5],[1,0.5]];portConstraint=eastwest;rounded=0;shadow=0;html=0;" parent="PkiGXHJMQHUCtbzhcNAy-83" vertex="1">
          <mxGeometry y="208" width="160" height="26" as="geometry" />
        </mxCell>
        <mxCell id="PkiGXHJMQHUCtbzhcNAy-92" value="isMain: boolean ???" style="text;align=left;verticalAlign=top;spacingLeft=4;spacingRight=4;overflow=hidden;rotatable=0;points=[[0,0.5],[1,0.5]];portConstraint=eastwest;rounded=0;shadow=0;html=0;" parent="PkiGXHJMQHUCtbzhcNAy-83" vertex="1">
          <mxGeometry y="234" width="160" height="26" as="geometry" />
        </mxCell>
        <mxCell id="PkiGXHJMQHUCtbzhcNAy-93" value="Equipment" style="swimlane;fontStyle=0;align=center;verticalAlign=top;childLayout=stackLayout;horizontal=1;startSize=26;horizontalStack=0;resizeParent=1;resizeLast=0;collapsible=1;marginBottom=0;rounded=0;shadow=0;strokeWidth=1;" parent="1" vertex="1">
          <mxGeometry x="1270" y="980" width="220" height="184" as="geometry">
            <mxRectangle x="130" y="380" width="160" height="26" as="alternateBounds" />
          </mxGeometry>
        </mxCell>
        <mxCell id="PkiGXHJMQHUCtbzhcNAy-94" value="id: Long" style="text;align=left;verticalAlign=top;spacingLeft=4;spacingRight=4;overflow=hidden;rotatable=0;points=[[0,0.5],[1,0.5]];portConstraint=eastwest;" parent="PkiGXHJMQHUCtbzhcNAy-93" vertex="1">
          <mxGeometry y="26" width="220" height="26" as="geometry" />
        </mxCell>
        <mxCell id="PkiGXHJMQHUCtbzhcNAy-96" style="edgeStyle=orthogonalEdgeStyle;rounded=0;orthogonalLoop=1;jettySize=auto;html=1;exitX=1;exitY=0.5;exitDx=0;exitDy=0;" parent="PkiGXHJMQHUCtbzhcNAy-93" edge="1">
          <mxGeometry relative="1" as="geometry">
            <mxPoint x="220" y="91" as="sourcePoint" />
            <mxPoint x="220" y="91" as="targetPoint" />
          </mxGeometry>
        </mxCell>
        <mxCell id="vfgOjcTiKyNMUZwXhWeF-14" value="name: String" style="text;align=left;verticalAlign=top;spacingLeft=4;spacingRight=4;overflow=hidden;rotatable=0;points=[[0,0.5],[1,0.5]];portConstraint=eastwest;" vertex="1" parent="PkiGXHJMQHUCtbzhcNAy-93">
          <mxGeometry y="52" width="220" height="26" as="geometry" />
        </mxCell>
        <mxCell id="vfgOjcTiKyNMUZwXhWeF-15" value="type: EquipmentType" style="text;align=left;verticalAlign=top;spacingLeft=4;spacingRight=4;overflow=hidden;rotatable=0;points=[[0,0.5],[1,0.5]];portConstraint=eastwest;" vertex="1" parent="PkiGXHJMQHUCtbzhcNAy-93">
          <mxGeometry y="78" width="220" height="26" as="geometry" />
        </mxCell>
        <mxCell id="vfgOjcTiKyNMUZwXhWeF-16" value="description: String" style="text;align=left;verticalAlign=top;spacingLeft=4;spacingRight=4;overflow=hidden;rotatable=0;points=[[0,0.5],[1,0.5]];portConstraint=eastwest;" vertex="1" parent="PkiGXHJMQHUCtbzhcNAy-93">
          <mxGeometry y="104" width="220" height="26" as="geometry" />
        </mxCell>
        <mxCell id="vfgOjcTiKyNMUZwXhWeF-17" value="price: double" style="text;align=left;verticalAlign=top;spacingLeft=4;spacingRight=4;overflow=hidden;rotatable=0;points=[[0,0.5],[1,0.5]];portConstraint=eastwest;" vertex="1" parent="PkiGXHJMQHUCtbzhcNAy-93">
          <mxGeometry y="130" width="220" height="26" as="geometry" />
        </mxCell>
        <mxCell id="PkiGXHJMQHUCtbzhcNAy-97" value="count: int" style="text;align=left;verticalAlign=top;spacingLeft=4;spacingRight=4;overflow=hidden;rotatable=0;points=[[0,0.5],[1,0.5]];portConstraint=eastwest;" parent="PkiGXHJMQHUCtbzhcNAy-93" vertex="1">
          <mxGeometry y="156" width="220" height="26" as="geometry" />
        </mxCell>
        <mxCell id="PkiGXHJMQHUCtbzhcNAy-100" value="" style="endArrow=classic;startArrow=classic;html=1;rounded=0;exitX=0.5;exitY=0;exitDx=0;exitDy=0;entryX=0.5;entryY=1;entryDx=0;entryDy=0;" parent="1" source="PkiGXHJMQHUCtbzhcNAy-93" target="PkiGXHJMQHUCtbzhcNAy-51" edge="1">
          <mxGeometry width="50" height="50" relative="1" as="geometry">
            <mxPoint x="1380" y="980" as="sourcePoint" />
            <mxPoint x="1370" y="650" as="targetPoint" />
          </mxGeometry>
        </mxCell>
        <mxCell id="PkiGXHJMQHUCtbzhcNAy-109" value="(0,N)" style="edgeLabel;html=1;align=center;verticalAlign=middle;resizable=0;points=[];rotation=0;" parent="PkiGXHJMQHUCtbzhcNAy-100" vertex="1" connectable="0">
          <mxGeometry x="0.3143" y="1" relative="1" as="geometry">
            <mxPoint x="-17" y="184" as="offset" />
          </mxGeometry>
        </mxCell>
        <mxCell id="PkiGXHJMQHUCtbzhcNAy-110" value="(1,1)" style="edgeLabel;html=1;align=center;verticalAlign=middle;resizable=0;points=[];" parent="PkiGXHJMQHUCtbzhcNAy-100" vertex="1" connectable="0">
          <mxGeometry x="-0.4476" relative="1" as="geometry">
            <mxPoint x="-20" y="-202" as="offset" />
          </mxGeometry>
        </mxCell>
        <mxCell id="PkiGXHJMQHUCtbzhcNAy-123" value="Reservation" style="swimlane;fontStyle=0;align=center;verticalAlign=top;childLayout=stackLayout;horizontal=1;startSize=26;horizontalStack=0;resizeParent=1;resizeLast=0;collapsible=1;marginBottom=0;rounded=0;shadow=0;strokeWidth=1;" parent="1" vertex="1">
          <mxGeometry x="550" y="1020" width="230" height="160" as="geometry">
            <mxRectangle x="340" y="380" width="170" height="26" as="alternateBounds" />
          </mxGeometry>
        </mxCell>
        <mxCell id="PkiGXHJMQHUCtbzhcNAy-124" value="id: Long" style="text;align=left;verticalAlign=top;spacingLeft=4;spacingRight=4;overflow=hidden;rotatable=0;points=[[0,0.5],[1,0.5]];portConstraint=eastwest;" parent="PkiGXHJMQHUCtbzhcNAy-123" vertex="1">
          <mxGeometry y="26" width="230" height="26" as="geometry" />
        </mxCell>
        <mxCell id="PkiGXHJMQHUCtbzhcNAy-125" value="uniqueId: String" style="text;align=left;verticalAlign=top;spacingLeft=4;spacingRight=4;overflow=hidden;rotatable=0;points=[[0,0.5],[1,0.5]];portConstraint=eastwest;" parent="PkiGXHJMQHUCtbzhcNAy-123" vertex="1">
          <mxGeometry y="52" width="230" height="26" as="geometry" />
        </mxCell>
        <mxCell id="PkiGXHJMQHUCtbzhcNAy-127" value="dateTime: LocalDateTime" style="text;align=left;verticalAlign=top;spacingLeft=4;spacingRight=4;overflow=hidden;rotatable=0;points=[[0,0.5],[1,0.5]];portConstraint=eastwest;" parent="PkiGXHJMQHUCtbzhcNAy-123" vertex="1">
          <mxGeometry y="78" width="230" height="26" as="geometry" />
        </mxCell>
        <mxCell id="PkiGXHJMQHUCtbzhcNAy-130" value="status: ReservationStatus" style="text;align=left;verticalAlign=top;spacingLeft=4;spacingRight=4;overflow=hidden;rotatable=0;points=[[0,0.5],[1,0.5]];portConstraint=eastwest;" parent="PkiGXHJMQHUCtbzhcNAy-123" vertex="1">
          <mxGeometry y="104" width="230" height="26" as="geometry" />
        </mxCell>
        <mxCell id="PkiGXHJMQHUCtbzhcNAy-131" value="ReservationItem" style="swimlane;fontStyle=0;align=center;verticalAlign=top;childLayout=stackLayout;horizontal=1;startSize=26;horizontalStack=0;resizeParent=1;resizeLast=0;collapsible=1;marginBottom=0;rounded=0;shadow=0;strokeWidth=1;" parent="1" vertex="1">
          <mxGeometry x="930" y="1090" width="220" height="78" as="geometry">
            <mxRectangle x="130" y="380" width="160" height="26" as="alternateBounds" />
          </mxGeometry>
        </mxCell>
        <mxCell id="PkiGXHJMQHUCtbzhcNAy-132" value="id: Long" style="text;align=left;verticalAlign=top;spacingLeft=4;spacingRight=4;overflow=hidden;rotatable=0;points=[[0,0.5],[1,0.5]];portConstraint=eastwest;" parent="PkiGXHJMQHUCtbzhcNAy-131" vertex="1">
          <mxGeometry y="26" width="220" height="26" as="geometry" />
        </mxCell>
        <mxCell id="PkiGXHJMQHUCtbzhcNAy-134" style="edgeStyle=orthogonalEdgeStyle;rounded=0;orthogonalLoop=1;jettySize=auto;html=1;exitX=1;exitY=0.5;exitDx=0;exitDy=0;" parent="PkiGXHJMQHUCtbzhcNAy-131" edge="1">
          <mxGeometry relative="1" as="geometry">
            <mxPoint x="220" y="91" as="sourcePoint" />
            <mxPoint x="220" y="91" as="targetPoint" />
          </mxGeometry>
        </mxCell>
        <mxCell id="PkiGXHJMQHUCtbzhcNAy-135" value="count: int" style="text;align=left;verticalAlign=top;spacingLeft=4;spacingRight=4;overflow=hidden;rotatable=0;points=[[0,0.5],[1,0.5]];portConstraint=eastwest;" parent="PkiGXHJMQHUCtbzhcNAy-131" vertex="1">
          <mxGeometry y="52" width="220" height="26" as="geometry" />
        </mxCell>
        <mxCell id="PkiGXHJMQHUCtbzhcNAy-136" value="ReservationType&#xa;&lt;&lt;enum&gt;&gt;" style="swimlane;fontStyle=0;align=center;verticalAlign=top;childLayout=stackLayout;horizontal=1;startSize=40;horizontalStack=0;resizeParent=1;resizeLast=0;collapsible=1;marginBottom=0;rounded=0;shadow=0;strokeWidth=1;" parent="1" vertex="1">
          <mxGeometry x="430" y="1020" width="110" height="144" as="geometry">
            <mxRectangle x="340" y="380" width="170" height="26" as="alternateBounds" />
          </mxGeometry>
        </mxCell>
        <mxCell id="PkiGXHJMQHUCtbzhcNAy-137" value="PENDING" style="text;align=left;verticalAlign=top;spacingLeft=4;spacingRight=4;overflow=hidden;rotatable=0;points=[[0,0.5],[1,0.5]];portConstraint=eastwest;" parent="PkiGXHJMQHUCtbzhcNAy-136" vertex="1">
          <mxGeometry y="40" width="110" height="26" as="geometry" />
        </mxCell>
        <mxCell id="PkiGXHJMQHUCtbzhcNAy-138" value="DENIED" style="text;align=left;verticalAlign=top;spacingLeft=4;spacingRight=4;overflow=hidden;rotatable=0;points=[[0,0.5],[1,0.5]];portConstraint=eastwest;" parent="PkiGXHJMQHUCtbzhcNAy-136" vertex="1">
          <mxGeometry y="66" width="110" height="26" as="geometry" />
        </mxCell>
        <mxCell id="PkiGXHJMQHUCtbzhcNAy-139" value="ACCEPTED" style="text;align=left;verticalAlign=top;spacingLeft=4;spacingRight=4;overflow=hidden;rotatable=0;points=[[0,0.5],[1,0.5]];portConstraint=eastwest;" parent="PkiGXHJMQHUCtbzhcNAy-136" vertex="1">
          <mxGeometry y="92" width="110" height="26" as="geometry" />
        </mxCell>
        <mxCell id="PkiGXHJMQHUCtbzhcNAy-140" value="CANCELLED" style="text;align=left;verticalAlign=top;spacingLeft=4;spacingRight=4;overflow=hidden;rotatable=0;points=[[0,0.5],[1,0.5]];portConstraint=eastwest;" parent="PkiGXHJMQHUCtbzhcNAy-136" vertex="1">
          <mxGeometry y="118" width="110" height="26" as="geometry" />
        </mxCell>
        <mxCell id="PkiGXHJMQHUCtbzhcNAy-141" value="" style="endArrow=classic;startArrow=classic;html=1;rounded=0;entryX=0;entryY=0.5;entryDx=0;entryDy=0;exitX=0.998;exitY=0.2;exitDx=0;exitDy=0;exitPerimeter=0;" parent="1" source="PkiGXHJMQHUCtbzhcNAy-130" target="PkiGXHJMQHUCtbzhcNAy-132" edge="1">
          <mxGeometry width="50" height="50" relative="1" as="geometry">
            <mxPoint x="780" y="975" as="sourcePoint" />
            <mxPoint x="1020" y="950" as="targetPoint" />
          </mxGeometry>
        </mxCell>
        <mxCell id="PkiGXHJMQHUCtbzhcNAy-143" value="(1,1)" style="edgeLabel;html=1;align=center;verticalAlign=middle;resizable=0;points=[];" parent="PkiGXHJMQHUCtbzhcNAy-141" vertex="1" connectable="0">
          <mxGeometry x="-0.5815" y="-1" relative="1" as="geometry">
            <mxPoint x="-5" y="-10" as="offset" />
          </mxGeometry>
        </mxCell>
        <mxCell id="PkiGXHJMQHUCtbzhcNAy-144" value="(0,N)" style="edgeLabel;html=1;align=center;verticalAlign=middle;resizable=0;points=[];" parent="PkiGXHJMQHUCtbzhcNAy-141" vertex="1" connectable="0">
          <mxGeometry x="0.5877" y="1" relative="1" as="geometry">
            <mxPoint x="-1" y="-8" as="offset" />
          </mxGeometry>
        </mxCell>
        <mxCell id="PkiGXHJMQHUCtbzhcNAy-145" value="" style="endArrow=classic;html=1;rounded=0;exitX=0.533;exitY=-0.017;exitDx=0;exitDy=0;exitPerimeter=0;entryX=0.535;entryY=0.969;entryDx=0;entryDy=0;entryPerimeter=0;" parent="1" source="PkiGXHJMQHUCtbzhcNAy-123" edge="1" target="vfgOjcTiKyNMUZwXhWeF-1">
          <mxGeometry width="50" height="50" relative="1" as="geometry">
            <mxPoint x="970" y="1000" as="sourcePoint" />
            <mxPoint x="673" y="830" as="targetPoint" />
          </mxGeometry>
        </mxCell>
        <mxCell id="PkiGXHJMQHUCtbzhcNAy-146" value="(1,1)" style="edgeLabel;html=1;align=center;verticalAlign=middle;resizable=0;points=[];" parent="PkiGXHJMQHUCtbzhcNAy-145" vertex="1" connectable="0">
          <mxGeometry x="0.6378" y="2" relative="1" as="geometry">
            <mxPoint x="-14" as="offset" />
          </mxGeometry>
        </mxCell>
        <mxCell id="PkiGXHJMQHUCtbzhcNAy-147" value="(0,N)" style="edgeLabel;html=1;align=center;verticalAlign=middle;resizable=0;points=[];" parent="PkiGXHJMQHUCtbzhcNAy-145" vertex="1" connectable="0">
          <mxGeometry x="-0.4961" relative="1" as="geometry">
            <mxPoint x="-17" y="34" as="offset" />
          </mxGeometry>
        </mxCell>
        <mxCell id="PkiGXHJMQHUCtbzhcNAy-148" value="" style="endArrow=classic;html=1;rounded=0;entryX=0;entryY=0.75;entryDx=0;entryDy=0;exitX=1.004;exitY=0.086;exitDx=0;exitDy=0;exitPerimeter=0;" parent="1" source="PkiGXHJMQHUCtbzhcNAy-132" target="PkiGXHJMQHUCtbzhcNAy-93" edge="1">
          <mxGeometry width="50" height="50" relative="1" as="geometry">
            <mxPoint x="1140" y="929" as="sourcePoint" />
            <mxPoint x="1270" y="1045" as="targetPoint" />
          </mxGeometry>
        </mxCell>
        <mxCell id="PkiGXHJMQHUCtbzhcNAy-149" value="(0,N)" style="edgeLabel;html=1;align=center;verticalAlign=middle;resizable=0;points=[];" parent="PkiGXHJMQHUCtbzhcNAy-148" vertex="1" connectable="0">
          <mxGeometry x="-0.606" y="2" relative="1" as="geometry">
            <mxPoint x="-1" y="-7" as="offset" />
          </mxGeometry>
        </mxCell>
        <mxCell id="PkiGXHJMQHUCtbzhcNAy-150" value="(1,1)" style="edgeLabel;html=1;align=center;verticalAlign=middle;resizable=0;points=[];" parent="PkiGXHJMQHUCtbzhcNAy-148" vertex="1" connectable="0">
          <mxGeometry x="0.4876" y="3" relative="1" as="geometry">
            <mxPoint x="3" y="-7" as="offset" />
          </mxGeometry>
        </mxCell>
        <mxCell id="PkiGXHJMQHUCtbzhcNAy-151" value="Appointment" style="swimlane;fontStyle=0;align=center;verticalAlign=top;childLayout=stackLayout;horizontal=1;startSize=26;horizontalStack=0;resizeParent=1;resizeLast=0;collapsible=1;marginBottom=0;rounded=0;shadow=0;strokeWidth=1;" parent="1" vertex="1">
          <mxGeometry x="990" y="850" width="180" height="156" as="geometry">
            <mxRectangle x="340" y="380" width="170" height="26" as="alternateBounds" />
          </mxGeometry>
        </mxCell>
        <mxCell id="PkiGXHJMQHUCtbzhcNAy-152" value="id: Long" style="text;align=left;verticalAlign=top;spacingLeft=4;spacingRight=4;overflow=hidden;rotatable=0;points=[[0,0.5],[1,0.5]];portConstraint=eastwest;" parent="PkiGXHJMQHUCtbzhcNAy-151" vertex="1">
          <mxGeometry y="26" width="180" height="26" as="geometry" />
        </mxCell>
        <mxCell id="PkiGXHJMQHUCtbzhcNAy-158" value="date: LocalDate" style="text;align=left;verticalAlign=top;spacingLeft=4;spacingRight=4;overflow=hidden;rotatable=0;points=[[0,0.5],[1,0.5]];portConstraint=eastwest;" parent="PkiGXHJMQHUCtbzhcNAy-151" vertex="1">
          <mxGeometry y="52" width="180" height="26" as="geometry" />
        </mxCell>
        <mxCell id="PkiGXHJMQHUCtbzhcNAy-159" value="startTime: LocalTime" style="text;align=left;verticalAlign=top;spacingLeft=4;spacingRight=4;overflow=hidden;rotatable=0;points=[[0,0.5],[1,0.5]];portConstraint=eastwest;" parent="PkiGXHJMQHUCtbzhcNAy-151" vertex="1">
          <mxGeometry y="78" width="180" height="26" as="geometry" />
        </mxCell>
        <mxCell id="PkiGXHJMQHUCtbzhcNAy-160" value="endTime: LocalTime" style="text;align=left;verticalAlign=top;spacingLeft=4;spacingRight=4;overflow=hidden;rotatable=0;points=[[0,0.5],[1,0.5]];portConstraint=eastwest;" parent="PkiGXHJMQHUCtbzhcNAy-151" vertex="1">
          <mxGeometry y="104" width="180" height="26" as="geometry" />
        </mxCell>
        <mxCell id="PkiGXHJMQHUCtbzhcNAy-155" value="status: AppointmentStatus ???" style="text;align=left;verticalAlign=top;spacingLeft=4;spacingRight=4;overflow=hidden;rotatable=0;points=[[0,0.5],[1,0.5]];portConstraint=eastwest;" parent="PkiGXHJMQHUCtbzhcNAy-151" vertex="1">
          <mxGeometry y="130" width="180" height="26" as="geometry" />
        </mxCell>
        <mxCell id="PkiGXHJMQHUCtbzhcNAy-164" value="" style="endArrow=classic;html=1;rounded=0;exitX=0.5;exitY=0;exitDx=0;exitDy=0;entryX=0.5;entryY=1;entryDx=0;entryDy=0;" parent="1" source="PkiGXHJMQHUCtbzhcNAy-151" target="PkiGXHJMQHUCtbzhcNAy-41" edge="1">
          <mxGeometry width="50" height="50" relative="1" as="geometry">
            <mxPoint x="1150" y="820" as="sourcePoint" />
            <mxPoint x="1085" y="750" as="targetPoint" />
            <Array as="points" />
          </mxGeometry>
        </mxCell>
        <mxCell id="PkiGXHJMQHUCtbzhcNAy-165" value="(1,1)" style="edgeLabel;html=1;align=center;verticalAlign=middle;resizable=0;points=[];" parent="PkiGXHJMQHUCtbzhcNAy-164" vertex="1" connectable="0">
          <mxGeometry x="0.52" relative="1" as="geometry">
            <mxPoint x="-15" y="-1" as="offset" />
          </mxGeometry>
        </mxCell>
        <mxCell id="PkiGXHJMQHUCtbzhcNAy-166" value="(0,N)" style="edgeLabel;html=1;align=center;verticalAlign=middle;resizable=0;points=[];" parent="PkiGXHJMQHUCtbzhcNAy-164" vertex="1" connectable="0">
          <mxGeometry x="-0.4229" relative="1" as="geometry">
            <mxPoint x="-16" y="12" as="offset" />
          </mxGeometry>
        </mxCell>
        <mxCell id="PkiGXHJMQHUCtbzhcNAy-167" value="AppointmentStatus&#xa;&lt;&lt;enum&gt;&gt;" style="swimlane;fontStyle=0;align=center;verticalAlign=top;childLayout=stackLayout;horizontal=1;startSize=40;horizontalStack=0;resizeParent=1;resizeLast=0;collapsible=1;marginBottom=0;rounded=0;shadow=0;strokeWidth=1;" parent="1" vertex="1">
          <mxGeometry x="870" y="850" width="110" height="92" as="geometry">
            <mxRectangle x="340" y="380" width="170" height="26" as="alternateBounds" />
          </mxGeometry>
        </mxCell>
        <mxCell id="PkiGXHJMQHUCtbzhcNAy-168" value="AVAILABLE " style="text;align=left;verticalAlign=top;spacingLeft=4;spacingRight=4;overflow=hidden;rotatable=0;points=[[0,0.5],[1,0.5]];portConstraint=eastwest;" parent="PkiGXHJMQHUCtbzhcNAy-167" vertex="1">
          <mxGeometry y="40" width="110" height="26" as="geometry" />
        </mxCell>
        <mxCell id="PkiGXHJMQHUCtbzhcNAy-169" value="RESERVED" style="text;align=left;verticalAlign=top;spacingLeft=4;spacingRight=4;overflow=hidden;rotatable=0;points=[[0,0.5],[1,0.5]];portConstraint=eastwest;" parent="PkiGXHJMQHUCtbzhcNAy-167" vertex="1">
          <mxGeometry y="66" width="110" height="26" as="geometry" />
        </mxCell>
        <mxCell id="PkiGXHJMQHUCtbzhcNAy-172" value="" style="endArrow=classic;html=1;rounded=0;exitX=1.012;exitY=0.113;exitDx=0;exitDy=0;exitPerimeter=0;" parent="1" source="PkiGXHJMQHUCtbzhcNAy-123" edge="1">
          <mxGeometry width="50" height="50" relative="1" as="geometry">
            <mxPoint x="1080" y="880" as="sourcePoint" />
            <mxPoint x="1075" y="1010" as="targetPoint" />
            <Array as="points">
              <mxPoint x="1075" y="1040" />
            </Array>
          </mxGeometry>
        </mxCell>
        <mxCell id="PkiGXHJMQHUCtbzhcNAy-173" value="(1,1)" style="edgeLabel;html=1;align=center;verticalAlign=middle;resizable=0;points=[];" parent="PkiGXHJMQHUCtbzhcNAy-172" vertex="1" connectable="0">
          <mxGeometry x="0.7656" y="1" relative="1" as="geometry">
            <mxPoint x="-14" y="-17" as="offset" />
          </mxGeometry>
        </mxCell>
        <mxCell id="PkiGXHJMQHUCtbzhcNAy-174" value="(1,1)" style="edgeLabel;html=1;align=center;verticalAlign=middle;resizable=0;points=[];" parent="PkiGXHJMQHUCtbzhcNAy-172" vertex="1" connectable="0">
          <mxGeometry x="-0.9131" y="3" relative="1" as="geometry">
            <mxPoint x="3" y="-7" as="offset" />
          </mxGeometry>
        </mxCell>
        <mxCell id="PkiGXHJMQHUCtbzhcNAy-175" value="Contract" style="swimlane;fontStyle=0;align=center;verticalAlign=top;childLayout=stackLayout;horizontal=1;startSize=26;horizontalStack=0;resizeParent=1;resizeLast=0;collapsible=1;marginBottom=0;rounded=0;shadow=0;strokeWidth=1;" parent="1" vertex="1">
          <mxGeometry x="870" y="1350" width="230" height="130" as="geometry">
            <mxRectangle x="340" y="380" width="170" height="26" as="alternateBounds" />
          </mxGeometry>
        </mxCell>
        <mxCell id="PkiGXHJMQHUCtbzhcNAy-176" value="id: Long" style="text;align=left;verticalAlign=top;spacingLeft=4;spacingRight=4;overflow=hidden;rotatable=0;points=[[0,0.5],[1,0.5]];portConstraint=eastwest;" parent="PkiGXHJMQHUCtbzhcNAy-175" vertex="1">
          <mxGeometry y="26" width="230" height="26" as="geometry" />
        </mxCell>
        <mxCell id="PkiGXHJMQHUCtbzhcNAy-180" value="deliveryDay: int" style="text;align=left;verticalAlign=top;spacingLeft=4;spacingRight=4;overflow=hidden;rotatable=0;points=[[0,0.5],[1,0.5]];portConstraint=eastwest;" parent="PkiGXHJMQHUCtbzhcNAy-175" vertex="1">
          <mxGeometry y="52" width="230" height="24" as="geometry" />
        </mxCell>
        <mxCell id="PkiGXHJMQHUCtbzhcNAy-181" value="startDate: LocalDate" style="text;align=left;verticalAlign=top;spacingLeft=4;spacingRight=4;overflow=hidden;rotatable=0;points=[[0,0.5],[1,0.5]];portConstraint=eastwest;" parent="PkiGXHJMQHUCtbzhcNAy-175" vertex="1">
          <mxGeometry y="76" width="230" height="26" as="geometry" />
        </mxCell>
        <mxCell id="PkiGXHJMQHUCtbzhcNAy-182" value="endDate: LocalDate" style="text;align=left;verticalAlign=top;spacingLeft=4;spacingRight=4;overflow=hidden;rotatable=0;points=[[0,0.5],[1,0.5]];portConstraint=eastwest;" parent="PkiGXHJMQHUCtbzhcNAy-175" vertex="1">
          <mxGeometry y="102" width="230" height="26" as="geometry" />
        </mxCell>
        <mxCell id="PkiGXHJMQHUCtbzhcNAy-189" value="" style="endArrow=classic;html=1;rounded=0;exitX=0;exitY=0.125;exitDx=0;exitDy=0;exitPerimeter=0;entryX=0.25;entryY=1;entryDx=0;entryDy=0;" parent="1" source="PkiGXHJMQHUCtbzhcNAy-175" target="PkiGXHJMQHUCtbzhcNAy-1" edge="1">
          <mxGeometry width="50" height="50" relative="1" as="geometry">
            <mxPoint x="1220" y="1110" as="sourcePoint" />
            <mxPoint x="1270" y="1060" as="targetPoint" />
            <Array as="points">
              <mxPoint x="320" y="1366" />
              <mxPoint x="320" y="920" />
              <mxPoint x="630" y="920" />
            </Array>
          </mxGeometry>
        </mxCell>
        <mxCell id="PkiGXHJMQHUCtbzhcNAy-191" value="(1,1)" style="edgeLabel;html=1;align=center;verticalAlign=middle;resizable=0;points=[];" parent="PkiGXHJMQHUCtbzhcNAy-189" vertex="1" connectable="0">
          <mxGeometry x="0.9331" y="3" relative="1" as="geometry">
            <mxPoint x="-13" y="-7" as="offset" />
          </mxGeometry>
        </mxCell>
        <mxCell id="PkiGXHJMQHUCtbzhcNAy-192" value="(0,N)" style="edgeLabel;html=1;align=center;verticalAlign=middle;resizable=0;points=[];" parent="PkiGXHJMQHUCtbzhcNAy-189" vertex="1" connectable="0">
          <mxGeometry x="-0.9603" y="-4" relative="1" as="geometry">
            <mxPoint x="2" y="-5" as="offset" />
          </mxGeometry>
        </mxCell>
        <mxCell id="PkiGXHJMQHUCtbzhcNAy-190" value="" style="endArrow=classic;html=1;rounded=0;exitX=1.009;exitY=0.123;exitDx=0;exitDy=0;exitPerimeter=0;entryX=0.766;entryY=0.948;entryDx=0;entryDy=0;entryPerimeter=0;" parent="1" source="PkiGXHJMQHUCtbzhcNAy-175" edge="1" target="PkiGXHJMQHUCtbzhcNAy-56">
          <mxGeometry width="50" height="50" relative="1" as="geometry">
            <mxPoint x="1220" y="1110" as="sourcePoint" />
            <mxPoint x="1440" y="680" as="targetPoint" />
            <Array as="points">
              <mxPoint x="1840" y="1366" />
              <mxPoint x="1840" y="840" />
              <mxPoint x="1440" y="840" />
            </Array>
          </mxGeometry>
        </mxCell>
        <mxCell id="PkiGXHJMQHUCtbzhcNAy-193" value="(0,N)" style="edgeLabel;html=1;align=center;verticalAlign=middle;resizable=0;points=[];" parent="PkiGXHJMQHUCtbzhcNAy-190" vertex="1" connectable="0">
          <mxGeometry x="-0.9546" y="-1" relative="1" as="geometry">
            <mxPoint x="-20" y="-11" as="offset" />
          </mxGeometry>
        </mxCell>
        <mxCell id="PkiGXHJMQHUCtbzhcNAy-194" value="(1,1)" style="edgeLabel;html=1;align=center;verticalAlign=middle;resizable=0;points=[];" parent="PkiGXHJMQHUCtbzhcNAy-190" vertex="1" connectable="0">
          <mxGeometry x="0.9596" relative="1" as="geometry">
            <mxPoint x="-16" y="-17" as="offset" />
          </mxGeometry>
        </mxCell>
        <mxCell id="PkiGXHJMQHUCtbzhcNAy-195" value="ContractItem" style="swimlane;fontStyle=0;align=center;verticalAlign=top;childLayout=stackLayout;horizontal=1;startSize=26;horizontalStack=0;resizeParent=1;resizeLast=0;collapsible=1;marginBottom=0;rounded=0;shadow=0;strokeWidth=1;" parent="1" vertex="1">
          <mxGeometry x="930" y="1200" width="220" height="78" as="geometry">
            <mxRectangle x="130" y="380" width="160" height="26" as="alternateBounds" />
          </mxGeometry>
        </mxCell>
        <mxCell id="PkiGXHJMQHUCtbzhcNAy-196" value="id: Long" style="text;align=left;verticalAlign=top;spacingLeft=4;spacingRight=4;overflow=hidden;rotatable=0;points=[[0,0.5],[1,0.5]];portConstraint=eastwest;" parent="PkiGXHJMQHUCtbzhcNAy-195" vertex="1">
          <mxGeometry y="26" width="220" height="26" as="geometry" />
        </mxCell>
        <mxCell id="PkiGXHJMQHUCtbzhcNAy-197" style="edgeStyle=orthogonalEdgeStyle;rounded=0;orthogonalLoop=1;jettySize=auto;html=1;exitX=1;exitY=0.5;exitDx=0;exitDy=0;" parent="PkiGXHJMQHUCtbzhcNAy-195" edge="1">
          <mxGeometry relative="1" as="geometry">
            <mxPoint x="220" y="91" as="sourcePoint" />
            <mxPoint x="220" y="91" as="targetPoint" />
          </mxGeometry>
        </mxCell>
        <mxCell id="PkiGXHJMQHUCtbzhcNAy-198" value="count: int" style="text;align=left;verticalAlign=top;spacingLeft=4;spacingRight=4;overflow=hidden;rotatable=0;points=[[0,0.5],[1,0.5]];portConstraint=eastwest;" parent="PkiGXHJMQHUCtbzhcNAy-195" vertex="1">
          <mxGeometry y="52" width="220" height="26" as="geometry" />
        </mxCell>
        <mxCell id="PkiGXHJMQHUCtbzhcNAy-199" value="" style="endArrow=classic;startArrow=classic;html=1;rounded=0;entryX=0.51;entryY=1.218;entryDx=0;entryDy=0;exitX=0.75;exitY=0;exitDx=0;exitDy=0;entryPerimeter=0;" parent="1" source="PkiGXHJMQHUCtbzhcNAy-175" target="PkiGXHJMQHUCtbzhcNAy-198" edge="1">
          <mxGeometry width="50" height="50" relative="1" as="geometry">
            <mxPoint x="790" y="1139" as="sourcePoint" />
            <mxPoint x="940" y="1139" as="targetPoint" />
          </mxGeometry>
        </mxCell>
        <mxCell id="PkiGXHJMQHUCtbzhcNAy-200" value="(1,1)" style="edgeLabel;html=1;align=center;verticalAlign=middle;resizable=0;points=[];" parent="PkiGXHJMQHUCtbzhcNAy-199" vertex="1" connectable="0">
          <mxGeometry x="-0.5815" y="-1" relative="1" as="geometry">
            <mxPoint x="-23" y="-1" as="offset" />
          </mxGeometry>
        </mxCell>
        <mxCell id="PkiGXHJMQHUCtbzhcNAy-201" value="(0,N)" style="edgeLabel;html=1;align=center;verticalAlign=middle;resizable=0;points=[];" parent="PkiGXHJMQHUCtbzhcNAy-199" vertex="1" connectable="0">
          <mxGeometry x="0.5877" y="1" relative="1" as="geometry">
            <mxPoint x="-21" y="-6" as="offset" />
          </mxGeometry>
        </mxCell>
        <mxCell id="PkiGXHJMQHUCtbzhcNAy-202" value="" style="endArrow=classic;html=1;rounded=0;entryX=0.25;entryY=1;entryDx=0;entryDy=0;exitX=1;exitY=0.5;exitDx=0;exitDy=0;" parent="1" source="PkiGXHJMQHUCtbzhcNAy-196" target="PkiGXHJMQHUCtbzhcNAy-93" edge="1">
          <mxGeometry width="50" height="50" relative="1" as="geometry">
            <mxPoint x="1162" y="1131" as="sourcePoint" />
            <mxPoint x="1280" y="1133" as="targetPoint" />
            <Array as="points">
              <mxPoint x="1325" y="1240" />
            </Array>
          </mxGeometry>
        </mxCell>
        <mxCell id="PkiGXHJMQHUCtbzhcNAy-203" value="(0,N)" style="edgeLabel;html=1;align=center;verticalAlign=middle;resizable=0;points=[];" parent="PkiGXHJMQHUCtbzhcNAy-202" vertex="1" connectable="0">
          <mxGeometry x="-0.606" y="2" relative="1" as="geometry">
            <mxPoint x="-30" y="-7" as="offset" />
          </mxGeometry>
        </mxCell>
        <mxCell id="PkiGXHJMQHUCtbzhcNAy-204" value="(1,1)" style="edgeLabel;html=1;align=center;verticalAlign=middle;resizable=0;points=[];" parent="PkiGXHJMQHUCtbzhcNAy-202" vertex="1" connectable="0">
          <mxGeometry x="0.4876" y="3" relative="1" as="geometry">
            <mxPoint x="-12" y="-38" as="offset" />
          </mxGeometry>
        </mxCell>
        <mxCell id="PkiGXHJMQHUCtbzhcNAy-205" value="Report" style="swimlane;fontStyle=0;align=center;verticalAlign=top;childLayout=stackLayout;horizontal=1;startSize=26;horizontalStack=0;resizeParent=1;resizeLast=0;collapsible=1;marginBottom=0;rounded=0;shadow=0;strokeWidth=1;" parent="1" vertex="1">
          <mxGeometry x="860" y="280" width="160" height="150" as="geometry">
            <mxRectangle x="340" y="380" width="170" height="26" as="alternateBounds" />
          </mxGeometry>
        </mxCell>
        <mxCell id="PkiGXHJMQHUCtbzhcNAy-206" value="id: Long" style="text;align=left;verticalAlign=top;spacingLeft=4;spacingRight=4;overflow=hidden;rotatable=0;points=[[0,0.5],[1,0.5]];portConstraint=eastwest;" parent="PkiGXHJMQHUCtbzhcNAy-205" vertex="1">
          <mxGeometry y="26" width="160" height="26" as="geometry" />
        </mxCell>
        <mxCell id="PkiGXHJMQHUCtbzhcNAy-207" value="content: String" style="text;align=left;verticalAlign=top;spacingLeft=4;spacingRight=4;overflow=hidden;rotatable=0;points=[[0,0.5],[1,0.5]];portConstraint=eastwest;" parent="PkiGXHJMQHUCtbzhcNAy-205" vertex="1">
          <mxGeometry y="52" width="160" height="26" as="geometry" />
        </mxCell>
        <mxCell id="PkiGXHJMQHUCtbzhcNAy-208" value="dateTime: LocalDateTime" style="text;align=left;verticalAlign=top;spacingLeft=4;spacingRight=4;overflow=hidden;rotatable=0;points=[[0,0.5],[1,0.5]];portConstraint=eastwest;" parent="PkiGXHJMQHUCtbzhcNAy-205" vertex="1">
          <mxGeometry y="78" width="160" height="26" as="geometry" />
        </mxCell>
        <mxCell id="PkiGXHJMQHUCtbzhcNAy-209" value="type: ReportType" style="text;align=left;verticalAlign=top;spacingLeft=4;spacingRight=4;overflow=hidden;rotatable=0;points=[[0,0.5],[1,0.5]];portConstraint=eastwest;" parent="PkiGXHJMQHUCtbzhcNAy-205" vertex="1">
          <mxGeometry y="104" width="160" height="26" as="geometry" />
        </mxCell>
        <mxCell id="PkiGXHJMQHUCtbzhcNAy-213" value="ReportType&#xa;&lt;&lt;enum&gt;&gt;" style="swimlane;fontStyle=0;align=center;verticalAlign=top;childLayout=stackLayout;horizontal=1;startSize=40;horizontalStack=0;resizeParent=1;resizeLast=0;collapsible=1;marginBottom=0;rounded=0;shadow=0;strokeWidth=1;" parent="1" vertex="1">
          <mxGeometry x="730" y="338" width="120" height="92" as="geometry">
            <mxRectangle x="340" y="380" width="170" height="26" as="alternateBounds" />
          </mxGeometry>
        </mxCell>
        <mxCell id="PkiGXHJMQHUCtbzhcNAy-214" value="COMPANY" style="text;align=left;verticalAlign=top;spacingLeft=4;spacingRight=4;overflow=hidden;rotatable=0;points=[[0,0.5],[1,0.5]];portConstraint=eastwest;" parent="PkiGXHJMQHUCtbzhcNAy-213" vertex="1">
          <mxGeometry y="40" width="120" height="26" as="geometry" />
        </mxCell>
        <mxCell id="PkiGXHJMQHUCtbzhcNAy-215" value="COMPANY_ADMIN" style="text;align=left;verticalAlign=top;spacingLeft=4;spacingRight=4;overflow=hidden;rotatable=0;points=[[0,0.5],[1,0.5]];portConstraint=eastwest;" parent="PkiGXHJMQHUCtbzhcNAy-213" vertex="1">
          <mxGeometry y="66" width="120" height="26" as="geometry" />
        </mxCell>
        <mxCell id="PkiGXHJMQHUCtbzhcNAy-216" value="" style="endArrow=classic;html=1;rounded=0;exitX=-0.013;exitY=0.113;exitDx=0;exitDy=0;entryX=0.5;entryY=0;entryDx=0;entryDy=0;exitPerimeter=0;" parent="1" source="PkiGXHJMQHUCtbzhcNAy-205" target="PkiGXHJMQHUCtbzhcNAy-1" edge="1">
          <mxGeometry width="50" height="50" relative="1" as="geometry">
            <mxPoint x="930" y="400" as="sourcePoint" />
            <mxPoint x="860" y="371" as="targetPoint" />
            <Array as="points">
              <mxPoint x="670" y="297" />
            </Array>
          </mxGeometry>
        </mxCell>
        <mxCell id="PkiGXHJMQHUCtbzhcNAy-217" value="(0,N)" style="edgeLabel;html=1;align=center;verticalAlign=middle;resizable=0;points=[];" parent="PkiGXHJMQHUCtbzhcNAy-216" vertex="1" connectable="0">
          <mxGeometry x="0.7835" y="2" relative="1" as="geometry">
            <mxPoint x="165" y="-144" as="offset" />
          </mxGeometry>
        </mxCell>
        <mxCell id="PkiGXHJMQHUCtbzhcNAy-218" value="(1,1)" style="edgeLabel;html=1;align=center;verticalAlign=middle;resizable=0;points=[];" parent="PkiGXHJMQHUCtbzhcNAy-216" vertex="1" connectable="0">
          <mxGeometry x="-0.8371" y="-2" relative="1" as="geometry">
            <mxPoint x="-174" y="153" as="offset" />
          </mxGeometry>
        </mxCell>
        <mxCell id="PkiGXHJMQHUCtbzhcNAy-219" value="" style="endArrow=classic;html=1;rounded=0;entryX=0.067;entryY=-0.013;entryDx=0;entryDy=0;entryPerimeter=0;" parent="1" target="PkiGXHJMQHUCtbzhcNAy-41" edge="1">
          <mxGeometry width="50" height="50" relative="1" as="geometry">
            <mxPoint x="1010" y="430" as="sourcePoint" />
            <mxPoint x="980" y="420" as="targetPoint" />
            <Array as="points" />
          </mxGeometry>
        </mxCell>
        <mxCell id="PkiGXHJMQHUCtbzhcNAy-220" value="(1,1)" style="edgeLabel;html=1;align=center;verticalAlign=middle;resizable=0;points=[];" parent="PkiGXHJMQHUCtbzhcNAy-219" vertex="1" connectable="0">
          <mxGeometry x="-0.7602" relative="1" as="geometry">
            <mxPoint x="-15" y="51" as="offset" />
          </mxGeometry>
        </mxCell>
        <mxCell id="PkiGXHJMQHUCtbzhcNAy-221" value="(0,N)" style="edgeLabel;html=1;align=center;verticalAlign=middle;resizable=0;points=[];" parent="PkiGXHJMQHUCtbzhcNAy-219" vertex="1" connectable="0">
          <mxGeometry x="-0.6062" y="-1" relative="1" as="geometry">
            <mxPoint x="-15" as="offset" />
          </mxGeometry>
        </mxCell>
        <mxCell id="PkiGXHJMQHUCtbzhcNAy-222" value="" style="endArrow=classic;html=1;rounded=0;exitX=1;exitY=0.5;exitDx=0;exitDy=0;" parent="1" source="PkiGXHJMQHUCtbzhcNAy-209" edge="1">
          <mxGeometry width="50" height="50" relative="1" as="geometry">
            <mxPoint x="930" y="470" as="sourcePoint" />
            <mxPoint x="1320" y="510" as="targetPoint" />
            <Array as="points">
              <mxPoint x="1320" y="400" />
            </Array>
          </mxGeometry>
        </mxCell>
        <mxCell id="PkiGXHJMQHUCtbzhcNAy-223" value="(0,N)" style="edgeLabel;html=1;align=center;verticalAlign=middle;resizable=0;points=[];" parent="PkiGXHJMQHUCtbzhcNAy-222" vertex="1" connectable="0">
          <mxGeometry x="-0.8906" y="2" relative="1" as="geometry">
            <mxPoint x="-4" y="-7" as="offset" />
          </mxGeometry>
        </mxCell>
        <mxCell id="PkiGXHJMQHUCtbzhcNAy-224" value="(1,1)" style="edgeLabel;html=1;align=center;verticalAlign=middle;resizable=0;points=[];" parent="PkiGXHJMQHUCtbzhcNAy-222" vertex="1" connectable="0">
          <mxGeometry x="0.9011" y="2" relative="1" as="geometry">
            <mxPoint x="-18" as="offset" />
          </mxGeometry>
        </mxCell>
        <mxCell id="PkiGXHJMQHUCtbzhcNAy-225" value="Pokusacemo preko object-a &lt;br&gt;(da ne mora da se pravi posebna &lt;br&gt;report klasa za company &lt;br&gt;i posebna za admina)" style="ellipse;shape=cloud;whiteSpace=wrap;html=1;fillColor=#f8cecc;strokeColor=#b85450;" parent="1" vertex="1">
          <mxGeometry x="1030" y="400" width="260" height="110" as="geometry" />
        </mxCell>
        <mxCell id="PkiGXHJMQHUCtbzhcNAy-226" value="Review" style="swimlane;fontStyle=0;align=center;verticalAlign=top;childLayout=stackLayout;horizontal=1;startSize=26;horizontalStack=0;resizeParent=1;resizeLast=0;collapsible=1;marginBottom=0;rounded=0;shadow=0;strokeWidth=1;" parent="1" vertex="1">
          <mxGeometry x="860" y="140" width="160" height="106" as="geometry">
            <mxRectangle x="340" y="380" width="170" height="26" as="alternateBounds" />
          </mxGeometry>
        </mxCell>
        <mxCell id="PkiGXHJMQHUCtbzhcNAy-227" value="id: Long" style="text;align=left;verticalAlign=top;spacingLeft=4;spacingRight=4;overflow=hidden;rotatable=0;points=[[0,0.5],[1,0.5]];portConstraint=eastwest;" parent="PkiGXHJMQHUCtbzhcNAy-226" vertex="1">
          <mxGeometry y="26" width="160" height="26" as="geometry" />
        </mxCell>
        <mxCell id="PkiGXHJMQHUCtbzhcNAy-230" value="rating: int" style="text;align=left;verticalAlign=top;spacingLeft=4;spacingRight=4;overflow=hidden;rotatable=0;points=[[0,0.5],[1,0.5]];portConstraint=eastwest;" parent="PkiGXHJMQHUCtbzhcNAy-226" vertex="1">
          <mxGeometry y="52" width="160" height="26" as="geometry" />
        </mxCell>
        <mxCell id="PkiGXHJMQHUCtbzhcNAy-231" value="content: String" style="text;align=left;verticalAlign=top;spacingLeft=4;spacingRight=4;overflow=hidden;rotatable=0;points=[[0,0.5],[1,0.5]];portConstraint=eastwest;" parent="PkiGXHJMQHUCtbzhcNAy-226" vertex="1">
          <mxGeometry y="78" width="160" height="26" as="geometry" />
        </mxCell>
        <mxCell id="PkiGXHJMQHUCtbzhcNAy-233" value="Reason" style="swimlane;fontStyle=0;align=center;verticalAlign=top;childLayout=stackLayout;horizontal=1;startSize=26;horizontalStack=0;resizeParent=1;resizeLast=0;collapsible=1;marginBottom=0;rounded=0;shadow=0;strokeWidth=1;" parent="1" vertex="1">
          <mxGeometry x="860" y="-30" width="160" height="110" as="geometry">
            <mxRectangle x="340" y="380" width="170" height="26" as="alternateBounds" />
          </mxGeometry>
        </mxCell>
        <mxCell id="PkiGXHJMQHUCtbzhcNAy-234" value="id: Long" style="text;align=left;verticalAlign=top;spacingLeft=4;spacingRight=4;overflow=hidden;rotatable=0;points=[[0,0.5],[1,0.5]];portConstraint=eastwest;" parent="PkiGXHJMQHUCtbzhcNAy-233" vertex="1">
          <mxGeometry y="26" width="160" height="26" as="geometry" />
        </mxCell>
        <mxCell id="PkiGXHJMQHUCtbzhcNAy-235" value="type: ReasonType" style="text;align=left;verticalAlign=top;spacingLeft=4;spacingRight=4;overflow=hidden;rotatable=0;points=[[0,0.5],[1,0.5]];portConstraint=eastwest;" parent="PkiGXHJMQHUCtbzhcNAy-233" vertex="1">
          <mxGeometry y="52" width="160" height="26" as="geometry" />
        </mxCell>
        <mxCell id="PkiGXHJMQHUCtbzhcNAy-236" value="content: String" style="text;align=left;verticalAlign=top;spacingLeft=4;spacingRight=4;overflow=hidden;rotatable=0;points=[[0,0.5],[1,0.5]];portConstraint=eastwest;" parent="PkiGXHJMQHUCtbzhcNAy-233" vertex="1">
          <mxGeometry y="78" width="160" height="26" as="geometry" />
        </mxCell>
        <mxCell id="PkiGXHJMQHUCtbzhcNAy-237" value="" style="endArrow=classic;html=1;rounded=0;exitX=-0.003;exitY=0.089;exitDx=0;exitDy=0;entryX=0.126;entryY=-0.014;entryDx=0;entryDy=0;exitPerimeter=0;entryPerimeter=0;" parent="1" source="PkiGXHJMQHUCtbzhcNAy-226" target="PkiGXHJMQHUCtbzhcNAy-1" edge="1">
          <mxGeometry width="50" height="50" relative="1" as="geometry">
            <mxPoint x="610" y="470" as="sourcePoint" />
            <mxPoint x="800" y="371" as="targetPoint" />
            <Array as="points">
              <mxPoint x="610" y="150" />
            </Array>
          </mxGeometry>
        </mxCell>
        <mxCell id="PkiGXHJMQHUCtbzhcNAy-238" value="(0,N)" style="edgeLabel;html=1;align=center;verticalAlign=middle;resizable=0;points=[];" parent="PkiGXHJMQHUCtbzhcNAy-237" vertex="1" connectable="0">
          <mxGeometry x="0.7835" y="2" relative="1" as="geometry">
            <mxPoint x="218" y="-264" as="offset" />
          </mxGeometry>
        </mxCell>
        <mxCell id="PkiGXHJMQHUCtbzhcNAy-240" value="" style="endArrow=classic;html=1;rounded=0;exitX=1.007;exitY=0.077;exitDx=0;exitDy=0;exitPerimeter=0;" parent="1" source="PkiGXHJMQHUCtbzhcNAy-226" edge="1">
          <mxGeometry width="50" height="50" relative="1" as="geometry">
            <mxPoint x="1030" y="407" as="sourcePoint" />
            <mxPoint x="1400" y="510" as="targetPoint" />
            <Array as="points">
              <mxPoint x="1400" y="150" />
            </Array>
          </mxGeometry>
        </mxCell>
        <mxCell id="PkiGXHJMQHUCtbzhcNAy-241" value="(0,N)" style="edgeLabel;html=1;align=center;verticalAlign=middle;resizable=0;points=[];" parent="PkiGXHJMQHUCtbzhcNAy-240" vertex="1" connectable="0">
          <mxGeometry x="-0.8906" y="2" relative="1" as="geometry">
            <mxPoint x="-16" y="-7" as="offset" />
          </mxGeometry>
        </mxCell>
        <mxCell id="PkiGXHJMQHUCtbzhcNAy-242" value="(1,1)" style="edgeLabel;html=1;align=center;verticalAlign=middle;resizable=0;points=[];" parent="PkiGXHJMQHUCtbzhcNAy-240" vertex="1" connectable="0">
          <mxGeometry x="0.9011" y="2" relative="1" as="geometry">
            <mxPoint x="-18" y="21" as="offset" />
          </mxGeometry>
        </mxCell>
        <mxCell id="PkiGXHJMQHUCtbzhcNAy-243" value="" style="endArrow=classic;html=1;rounded=0;exitX=0.5;exitY=0;exitDx=0;exitDy=0;entryX=0.5;entryY=1;entryDx=0;entryDy=0;" parent="1" source="PkiGXHJMQHUCtbzhcNAy-226" target="PkiGXHJMQHUCtbzhcNAy-233" edge="1">
          <mxGeometry width="50" height="50" relative="1" as="geometry">
            <mxPoint x="1030" y="50" as="sourcePoint" />
            <mxPoint x="1080" as="targetPoint" />
          </mxGeometry>
        </mxCell>
        <mxCell id="PkiGXHJMQHUCtbzhcNAy-250" value="(0,N)" style="edgeLabel;html=1;align=center;verticalAlign=middle;resizable=0;points=[];" parent="PkiGXHJMQHUCtbzhcNAy-243" vertex="1" connectable="0">
          <mxGeometry x="0.3508" y="-2" relative="1" as="geometry">
            <mxPoint x="-19" y="-4" as="offset" />
          </mxGeometry>
        </mxCell>
        <mxCell id="PkiGXHJMQHUCtbzhcNAy-251" value="(0,N)" style="edgeLabel;html=1;align=center;verticalAlign=middle;resizable=0;points=[];" parent="PkiGXHJMQHUCtbzhcNAy-243" vertex="1" connectable="0">
          <mxGeometry x="-0.554" y="-1" relative="1" as="geometry">
            <mxPoint x="-17" as="offset" />
          </mxGeometry>
        </mxCell>
        <mxCell id="PkiGXHJMQHUCtbzhcNAy-244" value="ReasonType&#xa;&lt;&lt;enum&gt;&gt;" style="swimlane;fontStyle=0;align=center;verticalAlign=top;childLayout=stackLayout;horizontal=1;startSize=40;horizontalStack=0;resizeParent=1;resizeLast=0;collapsible=1;marginBottom=0;rounded=0;shadow=0;strokeWidth=1;" parent="1" vertex="1">
          <mxGeometry x="1030" y="-30" width="130" height="144" as="geometry">
            <mxRectangle x="340" y="380" width="170" height="26" as="alternateBounds" />
          </mxGeometry>
        </mxCell>
        <mxCell id="PkiGXHJMQHUCtbzhcNAy-245" value="QUALITY" style="text;align=left;verticalAlign=top;spacingLeft=4;spacingRight=4;overflow=hidden;rotatable=0;points=[[0,0.5],[1,0.5]];portConstraint=eastwest;" parent="PkiGXHJMQHUCtbzhcNAy-244" vertex="1">
          <mxGeometry y="40" width="130" height="26" as="geometry" />
        </mxCell>
        <mxCell id="PkiGXHJMQHUCtbzhcNAy-249" value="PRICE " style="text;align=left;verticalAlign=top;spacingLeft=4;spacingRight=4;overflow=hidden;rotatable=0;points=[[0,0.5],[1,0.5]];portConstraint=eastwest;" parent="PkiGXHJMQHUCtbzhcNAy-244" vertex="1">
          <mxGeometry y="66" width="130" height="26" as="geometry" />
        </mxCell>
        <mxCell id="PkiGXHJMQHUCtbzhcNAy-246" value="SERVICE " style="text;align=left;verticalAlign=top;spacingLeft=4;spacingRight=4;overflow=hidden;rotatable=0;points=[[0,0.5],[1,0.5]];portConstraint=eastwest;" parent="PkiGXHJMQHUCtbzhcNAy-244" vertex="1">
          <mxGeometry y="92" width="130" height="26" as="geometry" />
        </mxCell>
        <mxCell id="PkiGXHJMQHUCtbzhcNAy-248" value="PROFESSIONALISM " style="text;align=left;verticalAlign=top;spacingLeft=4;spacingRight=4;overflow=hidden;rotatable=0;points=[[0,0.5],[1,0.5]];portConstraint=eastwest;" parent="PkiGXHJMQHUCtbzhcNAy-244" vertex="1">
          <mxGeometry y="118" width="130" height="26" as="geometry" />
        </mxCell>
        <mxCell id="PkiGXHJMQHUCtbzhcNAy-252" value="Da li da za svaku ocenu postoji&lt;br&gt;poseban skup razloga(nece biti isti&amp;nbsp;&lt;br&gt;razlozi, ako je neko zadovoljan&lt;br&gt;i ako nije)?" style="ellipse;shape=cloud;whiteSpace=wrap;html=1;fillColor=#f8cecc;strokeColor=#b85450;" parent="1" vertex="1">
          <mxGeometry x="890" y="-170" width="260" height="120" as="geometry" />
        </mxCell>
        <mxCell id="PkiGXHJMQHUCtbzhcNAy-253" value="ReportResponse" style="swimlane;fontStyle=0;align=center;verticalAlign=top;childLayout=stackLayout;horizontal=1;startSize=26;horizontalStack=0;resizeParent=1;resizeLast=0;collapsible=1;marginBottom=0;rounded=0;shadow=0;strokeWidth=1;" parent="1" vertex="1">
          <mxGeometry x="1160" y="228" width="160" height="110" as="geometry">
            <mxRectangle x="340" y="380" width="170" height="26" as="alternateBounds" />
          </mxGeometry>
        </mxCell>
        <mxCell id="PkiGXHJMQHUCtbzhcNAy-254" value="id: Long" style="text;align=left;verticalAlign=top;spacingLeft=4;spacingRight=4;overflow=hidden;rotatable=0;points=[[0,0.5],[1,0.5]];portConstraint=eastwest;" parent="PkiGXHJMQHUCtbzhcNAy-253" vertex="1">
          <mxGeometry y="26" width="160" height="26" as="geometry" />
        </mxCell>
        <mxCell id="PkiGXHJMQHUCtbzhcNAy-255" value="content: String" style="text;align=left;verticalAlign=top;spacingLeft=4;spacingRight=4;overflow=hidden;rotatable=0;points=[[0,0.5],[1,0.5]];portConstraint=eastwest;" parent="PkiGXHJMQHUCtbzhcNAy-253" vertex="1">
          <mxGeometry y="52" width="160" height="26" as="geometry" />
        </mxCell>
        <mxCell id="PkiGXHJMQHUCtbzhcNAy-256" value="dateTime: LocalDateTime" style="text;align=left;verticalAlign=top;spacingLeft=4;spacingRight=4;overflow=hidden;rotatable=0;points=[[0,0.5],[1,0.5]];portConstraint=eastwest;" parent="PkiGXHJMQHUCtbzhcNAy-253" vertex="1">
          <mxGeometry y="78" width="160" height="26" as="geometry" />
        </mxCell>
        <mxCell id="PkiGXHJMQHUCtbzhcNAy-260" value="" style="endArrow=classic;html=1;rounded=0;entryX=1.012;entryY=0.081;entryDx=0;entryDy=0;entryPerimeter=0;exitX=0;exitY=0.5;exitDx=0;exitDy=0;" parent="1" source="PkiGXHJMQHUCtbzhcNAy-255" target="PkiGXHJMQHUCtbzhcNAy-205" edge="1">
          <mxGeometry width="50" height="50" relative="1" as="geometry">
            <mxPoint x="1050" y="360" as="sourcePoint" />
            <mxPoint x="1100" y="310" as="targetPoint" />
          </mxGeometry>
        </mxCell>
        <mxCell id="PkiGXHJMQHUCtbzhcNAy-261" value="(1,1)" style="edgeLabel;html=1;align=center;verticalAlign=middle;resizable=0;points=[];" parent="PkiGXHJMQHUCtbzhcNAy-260" vertex="1" connectable="0">
          <mxGeometry x="0.8863" y="-1" relative="1" as="geometry">
            <mxPoint x="16" y="-8" as="offset" />
          </mxGeometry>
        </mxCell>
        <mxCell id="PkiGXHJMQHUCtbzhcNAy-262" value="(1,1)" style="edgeLabel;html=1;align=center;verticalAlign=middle;resizable=0;points=[];" parent="PkiGXHJMQHUCtbzhcNAy-260" vertex="1" connectable="0">
          <mxGeometry x="-0.8708" y="-2" relative="1" as="geometry">
            <mxPoint x="-9" y="-7" as="offset" />
          </mxGeometry>
        </mxCell>
        <mxCell id="PkiGXHJMQHUCtbzhcNAy-263" value="" style="endArrow=classic;html=1;rounded=0;entryX=0;entryY=0.5;entryDx=0;entryDy=0;exitX=0.998;exitY=0.583;exitDx=0;exitDy=0;exitPerimeter=0;" parent="1" source="PkiGXHJMQHUCtbzhcNAy-255" target="PkiGXHJMQHUCtbzhcNAy-87" edge="1">
          <mxGeometry width="50" height="50" relative="1" as="geometry">
            <mxPoint x="1530" y="360" as="sourcePoint" />
            <mxPoint x="1580" y="310" as="targetPoint" />
          </mxGeometry>
        </mxCell>
        <mxCell id="PkiGXHJMQHUCtbzhcNAy-264" value="(0,N)" style="edgeLabel;html=1;align=center;verticalAlign=middle;resizable=0;points=[];" parent="PkiGXHJMQHUCtbzhcNAy-263" vertex="1" connectable="0">
          <mxGeometry x="-0.7612" y="2" relative="1" as="geometry">
            <mxPoint x="-16" y="-9" as="offset" />
          </mxGeometry>
        </mxCell>
        <mxCell id="PkiGXHJMQHUCtbzhcNAy-265" value="(1,1)" style="edgeLabel;html=1;align=center;verticalAlign=middle;resizable=0;points=[];" parent="PkiGXHJMQHUCtbzhcNAy-263" vertex="1" connectable="0">
          <mxGeometry x="0.4674" y="-1" relative="1" as="geometry">
            <mxPoint x="54" y="-10" as="offset" />
          </mxGeometry>
        </mxCell>
        <mxCell id="PkiGXHJMQHUCtbzhcNAy-267" value="EquipmentType&#xa;&lt;&lt;enum&gt;&gt;" style="swimlane;fontStyle=0;align=center;verticalAlign=top;childLayout=stackLayout;horizontal=1;startSize=40;horizontalStack=0;resizeParent=1;resizeLast=0;collapsible=1;marginBottom=0;rounded=0;shadow=0;strokeWidth=1;" parent="1" vertex="1">
          <mxGeometry x="1500" y="980" width="110" height="170" as="geometry">
            <mxRectangle x="340" y="380" width="170" height="26" as="alternateBounds" />
          </mxGeometry>
        </mxCell>
        <mxCell id="PkiGXHJMQHUCtbzhcNAy-268" value="DIAGNOSTIC " style="text;align=left;verticalAlign=top;spacingLeft=4;spacingRight=4;overflow=hidden;rotatable=0;points=[[0,0.5],[1,0.5]];portConstraint=eastwest;" parent="PkiGXHJMQHUCtbzhcNAy-267" vertex="1">
          <mxGeometry y="40" width="110" height="26" as="geometry" />
        </mxCell>
        <mxCell id="PkiGXHJMQHUCtbzhcNAy-271" value="LIFE_SUPPORT " style="text;align=left;verticalAlign=top;spacingLeft=4;spacingRight=4;overflow=hidden;rotatable=0;points=[[0,0.5],[1,0.5]];portConstraint=eastwest;" parent="PkiGXHJMQHUCtbzhcNAy-267" vertex="1">
          <mxGeometry y="66" width="110" height="26" as="geometry" />
        </mxCell>
        <mxCell id="PkiGXHJMQHUCtbzhcNAy-272" value="LABORATORY " style="text;align=left;verticalAlign=top;spacingLeft=4;spacingRight=4;overflow=hidden;rotatable=0;points=[[0,0.5],[1,0.5]];portConstraint=eastwest;" parent="PkiGXHJMQHUCtbzhcNAy-267" vertex="1">
          <mxGeometry y="92" width="110" height="26" as="geometry" />
        </mxCell>
        <mxCell id="PkiGXHJMQHUCtbzhcNAy-269" value="SURGICAL " style="text;align=left;verticalAlign=top;spacingLeft=4;spacingRight=4;overflow=hidden;rotatable=0;points=[[0,0.5],[1,0.5]];portConstraint=eastwest;" parent="PkiGXHJMQHUCtbzhcNAy-267" vertex="1">
          <mxGeometry y="118" width="110" height="26" as="geometry" />
        </mxCell>
        <mxCell id="PkiGXHJMQHUCtbzhcNAy-273" value="OTHER" style="text;align=left;verticalAlign=top;spacingLeft=4;spacingRight=4;overflow=hidden;rotatable=0;points=[[0,0.5],[1,0.5]];portConstraint=eastwest;" parent="PkiGXHJMQHUCtbzhcNAy-267" vertex="1">
          <mxGeometry y="144" width="110" height="26" as="geometry" />
        </mxCell>
        <mxCell id="vfgOjcTiKyNMUZwXhWeF-3" value="WorkingHours" style="swimlane;fontStyle=0;align=center;verticalAlign=top;childLayout=stackLayout;horizontal=1;startSize=26;horizontalStack=0;resizeParent=1;resizeLast=0;collapsible=1;marginBottom=0;rounded=0;shadow=0;strokeWidth=1;" vertex="1" parent="1">
          <mxGeometry x="1660" y="470" width="160" height="110" as="geometry">
            <mxRectangle x="340" y="380" width="170" height="26" as="alternateBounds" />
          </mxGeometry>
        </mxCell>
        <mxCell id="vfgOjcTiKyNMUZwXhWeF-4" value="id: Long" style="text;align=left;verticalAlign=top;spacingLeft=4;spacingRight=4;overflow=hidden;rotatable=0;points=[[0,0.5],[1,0.5]];portConstraint=eastwest;" vertex="1" parent="vfgOjcTiKyNMUZwXhWeF-3">
          <mxGeometry y="26" width="160" height="26" as="geometry" />
        </mxCell>
        <mxCell id="vfgOjcTiKyNMUZwXhWeF-6" value="startTime: LocalTime" style="text;align=left;verticalAlign=top;spacingLeft=4;spacingRight=4;overflow=hidden;rotatable=0;points=[[0,0.5],[1,0.5]];portConstraint=eastwest;" vertex="1" parent="vfgOjcTiKyNMUZwXhWeF-3">
          <mxGeometry y="52" width="160" height="26" as="geometry" />
        </mxCell>
        <mxCell id="vfgOjcTiKyNMUZwXhWeF-7" value="endTime: LocalTime" style="text;align=left;verticalAlign=top;spacingLeft=4;spacingRight=4;overflow=hidden;rotatable=0;points=[[0,0.5],[1,0.5]];portConstraint=eastwest;" vertex="1" parent="vfgOjcTiKyNMUZwXhWeF-3">
          <mxGeometry y="78" width="160" height="26" as="geometry" />
        </mxCell>
        <mxCell id="vfgOjcTiKyNMUZwXhWeF-8" value="" style="endArrow=classic;html=1;rounded=0;exitX=1.005;exitY=-0.021;exitDx=0;exitDy=0;exitPerimeter=0;entryX=-0.025;entryY=0.692;entryDx=0;entryDy=0;entryPerimeter=0;" edge="1" parent="1" source="PkiGXHJMQHUCtbzhcNAy-53" target="vfgOjcTiKyNMUZwXhWeF-7">
          <mxGeometry width="50" height="50" relative="1" as="geometry">
            <mxPoint x="1610" y="670" as="sourcePoint" />
            <mxPoint x="1660" y="620" as="targetPoint" />
          </mxGeometry>
        </mxCell>
        <mxCell id="vfgOjcTiKyNMUZwXhWeF-9" value="(1,1)" style="edgeLabel;html=1;align=center;verticalAlign=middle;resizable=0;points=[];" vertex="1" connectable="0" parent="vfgOjcTiKyNMUZwXhWeF-8">
          <mxGeometry x="0.7121" y="2" relative="1" as="geometry">
            <mxPoint x="-1" y="-8" as="offset" />
          </mxGeometry>
        </mxCell>
        <mxCell id="vfgOjcTiKyNMUZwXhWeF-10" value="(1,1)" style="edgeLabel;html=1;align=center;verticalAlign=middle;resizable=0;points=[];" vertex="1" connectable="0" parent="vfgOjcTiKyNMUZwXhWeF-8">
          <mxGeometry x="-0.8335" y="1" relative="1" as="geometry">
            <mxPoint x="4" y="-9" as="offset" />
          </mxGeometry>
        </mxCell>
      </root>
    </mxGraphModel>
  </diagram>
</mxfile>
